<?xml version="1.0" encoding="UTF-8" standalone="no"?>
<svg width="130px" height="19px" viewBox="0 0 130 19" version="1.1" xmlns="http://www.w3.org/2000/svg" xmlns:xlink="http://www.w3.org/1999/xlink">
    <!-- Generator: sketchtool 40.3 (33839) - http://www.bohemiancoding.com/sketch -->
    <title>28F8DD19-5690-4FD5-9DD3-0D5B00B0609F</title>
    <desc>Created with sketchtool.</desc>
    <defs></defs>
    <g id="AMM_2.0.1_PDP_Beats" stroke="none" stroke-width="1" fill="none" fill-rule="evenodd">
        <g id="AMM_2.0.1_PDP_Beats_Desktop" transform="translate(-70.000000, -23.000000)" fill="#FF6602">
            <g id="nav_work">
                <g id="LOGO" transform="translate(70.000000, 23.000000)">
                    <path d="M5.14260169,16.0191059 C6.13208111,16.0191059 6.9048414,15.5773941 7.41177845,14.8896108 C7.9427954,14.1774926 8.0874322,13.2687734 8.0874322,12.2862488 L6.68749274,12.2862488 C5.23876392,12.2862488 3.09030145,12.5315197 3.09030145,14.4717537 C3.09030145,15.5522586 3.98346126,16.0191059 5.14260169,16.0191059 L5.14260169,16.0191059 Z M1.35182688,6.14631034 C2.60712954,5.55714778 4.29760169,5.18876108 5.67377603,5.18876108 C9.46360654,5.18876108 11.0328923,6.78526355 11.0328923,10.518601 L11.0328923,12.1392783 C11.0328923,13.4163842 11.0569722,14.3739335 11.0813668,15.3069877 C11.1054467,16.2651773 11.1539213,17.1487611 11.2260036,18.1312857 L8.37733535,18.1312857 C8.25677845,17.4681576 8.25677845,16.6327635 8.23254116,16.2400419 L8.18422397,16.2400419 C7.43601574,17.6399433 5.81825545,18.4261872 4.34560412,18.4261872 C2.14850969,18.4261872 4.7215497e-05,17.0752759 4.7215497e-05,14.6681946 C4.7215497e-05,12.7775911 0.893049637,11.6725911 2.12458717,11.0589335 C3.35565254,10.4444754 4.94917554,10.3215197 6.30095521,10.3215197 L8.0874322,10.3215197 C8.0874322,8.28298522 7.1942724,7.59520197 5.28708111,7.59520197 C3.91090678,7.59520197 2.53488983,8.13553448 1.44877603,8.97076847 L1.35182688,6.14631034 L1.35182688,6.14631034 Z" id="Fill-1"></path>
                    <path d="M43.4407906,5.18877709 C41.9202942,5.18877709 40.3023765,5.90105542 39.5540109,7.42327217 C38.8539625,5.85190517 37.6225823,5.18877709 35.8842651,5.18877709 C34.7422797,5.18877709 33.0439383,5.99743473 32.0055121,7.39493473 C31.4889746,6.04818596 30.429931,5.18877709 28.4871707,5.18877709 C26.9665169,5.18877709 25.3484419,5.90105542 24.6002337,7.42327217 C23.9001852,5.85190517 22.6689625,5.18877709 20.9306453,5.18877709 C19.7236598,5.18877709 18.2506937,5.70445443 17.236977,7.25180665 L17.1886598,7.25180665 L17.1886598,5.48351847 L14.1711174,5.48351847 L14.1711174,18.1313017 L17.4056937,18.1313017 L17.4056937,11.9913633 C17.4056937,10.3458707 17.6716743,7.74282882 19.8202942,7.74282882 C21.6794831,7.74282882 21.6794831,9.4126564 21.6794831,10.5921022 L21.6794831,18.1313017 L24.9140593,18.1313017 L24.9140593,11.9913633 C24.9140593,10.3458707 25.1798826,7.74282882 27.3286598,7.74282882 C28.5902579,7.74282882 28.9944225,8.51226232 29.1247373,9.37535345 L29.1247373,18.1313017 L32.4227397,18.1313017 L32.4227397,10.749319 C32.5824855,9.28745936 33.1185387,7.74282882 34.7740714,7.74282882 C36.6332603,7.74282882 36.6332603,9.4126564 36.6332603,10.5921022 L36.6332603,18.1313017 L39.8681513,18.1313017 L39.8681513,11.9913633 C39.8681513,10.3458707 40.1331877,7.74282882 42.282437,7.74282882 C44.140839,7.74282882 44.140839,9.4126564 44.140839,10.5921022 L44.140839,18.1313017 L47.3765169,18.1313017 L47.3765169,10.1495899 C47.3765169,7.32561207 46.5072797,5.18877709 43.4407906,5.18877709" id="Fill-3"></path>
                    <path d="M62.0534225,18.1313498 L58.9877203,18.1313498 L58.9877203,16.4120517 L58.938931,16.4120517 C57.9494516,17.6400074 56.54904,18.4262512 54.8588826,18.4262512 C51.9138947,18.4262512 50.63404,16.3139113 50.63404,13.4651182 L50.63404,5.4834064 L53.8694031,5.48324631 L53.8694031,12.2373227 C53.8694031,13.784835 53.8934831,15.8715591 55.9700206,15.8715591 C58.3115944,15.8715591 58.8185315,13.2933325 58.8185315,11.6724951 L58.8185315,5.48324631 L62.0534225,5.48324631 L62.0534225,18.1313498 Z" id="Fill-5"></path>
                    <path d="M65.3844758,5.48332635 L68.4503354,5.48332635 L68.4503354,7.20246429 L68.4989673,7.20246429 C69.5123692,5.75341256 70.8885436,5.18874507 72.5780714,5.18874507 C75.5235315,5.18874507 76.803701,7.30076478 76.803701,10.1495579 L76.803701,18.1314298 L73.5683378,18.1314298 L73.5683378,11.3775135 C73.5683378,9.83096182 73.5442579,7.7427968 71.4678777,7.7427968 C69.1263039,7.7427968 68.6193668,10.3215037 68.6193668,11.942181 L68.6193668,18.1314298 L65.3844758,18.1314298 L65.3844758,5.48332635 Z" id="Fill-8"></path>
                    <path d="M80.2070097,18.1313177 L83.441586,18.1313177 L83.441586,5.48337438 L80.2070097,5.48337438 L80.2070097,18.1313177 Z M80.1745884,1.6032266 C80.1745884,0.721564039 80.9166586,0 81.8241404,0 C82.7317797,0 83.4738499,0.721564039 83.4738499,1.6032266 C83.4738499,2.48504926 82.7317797,3.2062931 81.8241404,3.2062931 C80.9166586,3.2062931 80.1745884,2.48504926 80.1745884,1.6032266 L80.1745884,1.6032266 Z" id="Fill-10"></path>
                    <path d="M88.0652107,7.89027956 L85.6748475,7.89027956 L85.6748475,5.48335837 L88.0652107,5.48335837 L88.0652107,2.95364163 L91.3001017,1.89795197 L91.3001017,5.48335837 L94.1726925,5.48335837 L94.1726925,7.89027956 L91.3001017,7.89027956 L91.3001017,13.7847869 C91.3001017,14.8651318 91.5900048,15.8715111 92.8212276,15.8715111 C93.400247,15.8715111 93.9556586,15.7493559 94.2935642,15.5279397 L94.3903559,18.1313017 C93.71423,18.3277426 92.9655496,18.4262032 92.0001501,18.4262032 C89.4653075,18.4262032 88.0652107,16.8300209 88.0652107,14.3249594 L88.0652107,7.89027956 Z" id="Fill-12"></path>
                    <path d="M97.0967797,18.1313177 L100.331671,18.1313177 L100.331671,5.48337438 L97.0967797,5.48337438 L97.0967797,18.1313177 Z M97.0645157,1.6032266 C97.0645157,0.721564039 97.8069007,0 98.7143826,0 C99.6220218,0 100.364092,0.721564039 100.364092,1.6032266 C100.364092,2.48504926 99.6220218,3.2062931 98.7143826,3.2062931 C97.8069007,3.2062931 97.0645157,2.48504926 97.0645157,1.6032266 L97.0645157,1.6032266 Z" id="Fill-13"></path>
                    <path d="M109.432977,15.8715271 C111.919502,15.8715271 112.571391,13.6128571 112.571391,11.5006773 C112.571391,9.56012315 111.55736,7.74268473 109.432977,7.74268473 C107.332517,7.74284483 106.319115,9.6091133 106.319115,11.5006773 C106.319115,13.588202 106.970531,15.8715271 109.432977,15.8715271 M109.432977,5.1887931 C113.126803,5.1887931 115.951391,7.71834975 115.951391,11.893399 C115.951391,15.5279557 113.5615,18.4262192 109.432977,18.4262192 C105.329006,18.4262192 102.938643,15.5279557 102.938643,11.893399 C102.938643,7.71834975 105.763231,5.1887931 109.432977,5.1887931" id="Fill-14"></path>
                    <path d="M118.485384,5.48332635 L121.551715,5.48332635 L121.551715,7.20230419 L121.599875,7.20230419 C122.614064,5.75341256 123.990238,5.18874507 125.679924,5.18874507 C128.625541,5.18874507 129.904766,7.30076478 129.904766,10.1495579 L129.904766,18.1314298 L126.670033,18.1314298 L126.670033,11.3775135 C126.670033,9.83096182 126.645323,7.7426367 124.569573,7.7426367 C122.227212,7.7426367 121.720904,10.3215037 121.720904,11.942181 L121.720904,18.1314298 L118.485384,18.1314298 L118.485384,5.48332635 Z" id="Fill-15"></path>
                </g>
            </g>
        </g>
    </g>
</svg>