<?xml version="1.0" encoding="utf-8"?>
<!-- Generator: Adobe Illustrator 27.8.1, SVG Export Plug-In . SVG Version: 6.00 Build 0)  -->
<svg version="1.1" id="Layer_1" xmlns="http://www.w3.org/2000/svg" xmlns:xlink="http://www.w3.org/1999/xlink" x="0px" y="0px"
	 viewBox="0 0 1194.8 292.3" style="enable-background:new 0 0 1194.8 292.3;" xml:space="preserve">
<g>
	<path d="M1191.6,242.6c-1.9-4.3-4.5-8-7.9-11.1s-7.5-5.6-12.2-7.3c-4.7-1.8-9.9-2.7-15.4-2.7c-5.7,0-10.9,0.9-15.5,2.7
		s-8.7,4.2-12.1,7.3s-6.1,6.9-7.9,11.1c-1.9,4.3-2.8,9-2.8,13.9c0,4.9,0.9,9.6,2.8,13.9s4.5,8,7.9,11.1s7.4,5.6,12.1,7.3
		c4.6,1.8,9.8,2.7,15.5,2.7c5.5,0,10.7-0.9,15.4-2.6c4.7-1.8,8.8-4.2,12.2-7.3c3.4-3.1,6.1-6.9,7.9-11.1c1.9-4.3,2.8-9,2.8-13.9
		C1194.4,251.6,1193.5,246.9,1191.6,242.6z"/>
	<path d="M668.2,161.9c-6.7-11.7-16.6-20.2-29-25.1c11-6,19.6-15,25.2-26.7c8.4-17.6,9-40,1.5-60c-15.7-42-51.4-45.5-89.6-45.5
		H458.1v279.6h116.2c42.3,0,81.7-4,98.3-52C680.9,208,679.2,181.1,668.2,161.9z M530.2,168h41.3c13.5,0,36.2,4.1,36.2,31.2
		c0,19.6-10.2,28.7-32.1,28.7h-45.5L530.2,168L530.2,168z M572.3,111.6h-42.1V57.8h42.1c10.2,0,17.9,2.5,22.8,7.4
		c4.4,4.4,6.6,11,6.6,19.5C601.7,102.8,592.1,111.6,572.3,111.6z"/>
	<path d="M210.4,162c-6.7-11.8-16.6-20.3-29-25.1c11-6,19.6-15.1,25.2-26.7c8.4-17.6,9-40,1.5-59.9c-15.7-42-51.4-45.5-89.6-45.5
		H0.2v279.6h116.2c42.3,0,81.8-4,98.3-52C223,208.1,221.3,181.1,210.4,162z M72.3,168h41.3c13.6,0,36.3,4.1,36.3,31.2
		c0,19.6-10.2,28.7-32.1,28.7H72.3V168z M114.4,111.6H72.3V57.8h42.2c19.8,0,29.4,8.8,29.4,26.9S134.2,111.6,114.4,111.6z"/>
	<path d="M810,0.9c-71.2,0-115.5,46.1-115.5,120.4v46.3c0,74.3,44.2,120.4,115.5,120.4s115.4-46.1,115.4-120.4v-46.3
		C925.5,47,881.2,0.9,810,0.9z M761.2,132.5c0-50.6,16-75.2,48.8-75.2s48.8,24.6,48.8,75.2v24c0,50.6-16,75.2-48.8,75.2
		s-48.8-24.6-48.8-75.2V132.5z"/>
	<polygon points="429.6,61 429.6,4.6 241.7,4.6 241.7,284.3 429.6,284.3 429.6,227.9 312.6,227.9 312.6,168 419.8,168 419.8,111.6 
		312.6,111.6 312.6,61 	"/>
	<path d="M1146.4,28.3c-20.5-19.7-42.2-23.7-70.6-23.7H953.6v279.6h70.9v-93.7h51.3c28.4,0,50.1-3.9,70.6-23.6
		c17.6-17.1,27.8-42.3,27.8-69.3C1174.1,70.6,1164,45.3,1146.4,28.3z M1024.4,61h40.7c19.8,0,43.3,6.3,43.3,36.6
		c0,30.2-23.6,36.6-43.3,36.6h-40.7V61z"/>
</g>
</svg>
