<?xml version="1.0" encoding="UTF-8"?><svg id="Layer_1" xmlns="http://www.w3.org/2000/svg" viewBox="0 0 2557.78 376.4"><path d="M204.66,3.56V300.41h-48.52v-24.54c-14.09,19.53-34.83,29.29-62.22,29.29s-49.89-9.69-67.5-29.09C8.8,256.68,0,232.2,0,202.65s8.8-54.03,26.41-73.42c17.61-19.4,40.11-29.09,67.5-29.09,24.78,0,44.09,7.78,57.91,23.35V3.56h52.83Zm-66.52,239.26c9.65-9.1,14.48-22.5,14.48-40.17s-4.83-30.81-14.48-40.17c-9.65-9.37-21.13-14.05-34.44-14.05-14.09,0-25.96,4.94-35.61,14.84-9.65,9.9-14.48,22.89-14.48,38.99s4.76,29.48,14.28,39.38c9.52,9.9,21.46,14.84,35.8,14.84,13.3,0,24.78-4.55,34.44-13.66Z"/><path d="M435.12,220.46h-136.18c3.39,12.41,9.85,21.97,19.37,28.7,9.52,6.73,21.33,10.09,35.41,10.09,19.04,0,37.05-6.6,54-19.79l21.91,36.42c-22.96,19.53-48.78,29.29-77.48,29.29-30.52,0-55.83-9.83-75.92-29.49-20.09-19.66-30.13-44-30.13-73.02s9.72-53.04,29.15-72.83c19.43-19.79,43.5-29.68,72.2-29.68,26.87,0,48.78,8.71,65.74,26.12,16.96,17.41,25.44,39.06,25.44,64.91,0,9.5-1.17,19.26-3.52,29.29Zm-118.96-66.49c-8.35,7.12-14.09,16.75-17.22,28.89h88.44c-.26-12.14-4.44-21.77-12.52-28.89-8.09-7.13-17.87-10.69-29.35-10.69s-21,3.56-29.35,10.69Z"/><path d="M615.1,129.42l-26.61,32.85c-13.04-12.4-27.52-18.61-43.44-18.61-13.83,0-20.74,4.62-20.74,13.86,0,3.69,1.5,6.79,4.5,9.3,3,2.51,8.28,5.21,15.85,8.12l18.78,7.91c18.78,7.65,32.54,15.9,41.28,24.74,8.74,8.84,13.11,20.51,13.11,35.03,0,19.53-7.11,34.83-21.33,45.92-14.22,11.08-32.28,16.62-54.2,16.62-34.44,0-61.17-12.66-80.22-37.99l26.61-32.45c16.96,17.68,35.09,26.52,54.39,26.52,7.05,0,12.91-1.38,17.61-4.15,4.7-2.77,7.05-6.8,7.05-12.08,0-4.22-1.5-7.45-4.5-9.69s-8.15-4.95-15.46-8.12l-20.74-8.71c-17.74-7.39-30.98-15.57-39.72-24.54-8.74-8.97-13.11-20.71-13.11-35.23,0-18.47,6.59-32.92,19.76-43.34,13.17-10.42,30.33-15.63,51.46-15.63,28.96,0,52.18,9.9,69.66,29.68Z"/><path d="M708.02,9.5c6.65,6.33,9.98,14.25,9.98,23.75s-3.33,17.02-9.98,23.35c-6.65,6.33-14.67,9.5-24.07,9.5s-17.35-3.17-23.87-9.5c-6.52-6.33-9.78-14.11-9.78-23.35s3.26-17.42,9.78-23.75c6.52-6.33,14.48-9.5,23.87-9.5s17.41,3.17,24.07,9.5Zm2.54,290.92h-52.83V104.49h52.83v195.92Z"/><path d="M957.47,104.49v174.15c0,31.93-9.13,56.2-27.39,72.83-18.26,16.62-42.52,24.93-72.79,24.93-36.52,0-68.22-12.13-95.09-36.41l27.79-37.2c21.65,16.89,42.65,25.33,63,25.33,15.65,0,28.18-3.89,37.57-11.68,9.39-7.78,14.09-19.33,14.09-34.63v-10.69c-14.09,15.57-33.78,23.36-59.09,23.36-26.87,0-49.04-9.04-66.52-27.12-17.48-18.07-26.22-41.49-26.22-70.25s8.74-52.44,26.22-70.25c17.48-17.81,39.65-26.72,66.52-26.72,28.44,0,49.57,9.63,63.39,28.89v-24.54h48.52Zm-66.52,131.01c9.65-9.24,14.48-22.29,14.48-39.18s-4.76-29.56-14.28-38c-9.52-8.44-21.06-12.66-34.63-12.66-14.35,0-26.28,4.55-35.8,13.65-9.52,9.1-14.28,21.57-14.28,37.4s4.83,28.56,14.48,38.19c9.65,9.63,21.52,14.45,35.61,14.45,13.3,0,24.78-4.62,34.44-13.85Z"/><path d="M1168.36,121.71c13.04,14.39,19.57,33.45,19.57,57.19v121.51h-52.44v-114.39c0-11.35-3.33-20.52-9.98-27.51-6.65-6.99-15.32-10.49-26.02-10.49s-19.5,3.49-26.41,10.49c-6.92,6.99-10.37,16.16-10.37,27.51v114.39h-52.83V104.49h48.53v17.81c14.61-14.78,33.52-22.16,56.74-22.16s40.18,7.19,53.22,21.57Z"/><path d="M1526.59,129.23c17.61,19.39,26.41,43.87,26.41,73.42s-8.8,54.03-26.41,73.42c-17.61,19.39-40.11,29.09-67.5,29.09s-48.14-9.76-62.22-29.29v24.54h-48.52V3.56h52.83V123.49c13.82-15.57,33.13-23.35,57.92-23.35,27.39,0,49.89,9.69,67.5,29.09Zm-41.48,112.4c9.52-9.9,14.28-23.02,14.28-39.38s-4.82-29.09-14.48-38.99c-9.65-9.89-21.52-14.84-35.61-14.84s-25.11,4.68-34.63,14.05c-9.52,9.37-14.28,22.76-14.28,40.17s4.82,31.07,14.48,40.17c9.65,9.1,21.13,13.66,34.43,13.66,14.35,0,26.29-4.94,35.81-14.84Z"/><path d="M1770.94,214.13c0,27.17-8.41,49.14-25.24,65.9-16.82,16.76-38.02,25.13-63.59,25.13s-47.54-8.31-64.37-24.93c-16.82-16.62-25.24-38.65-25.24-66.09V104.49h52.83v113.99c0,11.35,3.46,20.45,10.37,27.31,6.92,6.86,15.72,10.29,26.41,10.29s18.72-3.43,25.63-10.29c6.92-6.86,10.37-15.96,10.37-27.31V104.49h52.83v109.64Z"/><path d="M1940.35,104.49v47.1h-14.09c-15.92,0-28.57,4.28-37.96,12.86-9.39,8.58-14.09,21.31-14.09,38.19v97.77h-52.83V104.49h48.52v23.75c13.3-17.42,31.05-26.13,53.22-26.13,6.52,0,12.26,.79,17.22,2.38Z"/><path d="M2163.78,104.49v174.15c0,31.93-9.13,56.2-27.39,72.83-18.26,16.62-42.52,24.93-72.79,24.93-36.52,0-68.22-12.13-95.09-36.41l27.78-37.2c21.65,16.89,42.65,25.33,63,25.33,15.66,0,28.18-3.89,37.57-11.68,9.39-7.78,14.09-19.33,14.09-34.63v-10.69c-14.09,15.57-33.78,23.36-59.09,23.36-26.87,0-49.04-9.04-66.52-27.12-17.48-18.07-26.22-41.49-26.22-70.25s8.74-52.44,26.22-70.25c17.48-17.81,39.65-26.72,66.52-26.72,28.44,0,49.57,9.63,63.39,28.89v-24.54h48.52Zm-66.52,131.01c9.65-9.24,14.48-22.29,14.48-39.18s-4.76-29.56-14.29-38c-9.52-8.44-21.06-12.66-34.63-12.66-14.35,0-26.29,4.55-35.81,13.65-9.52,9.1-14.28,21.57-14.28,37.4s4.82,28.56,14.48,38.19c9.65,9.63,21.53,14.45,35.61,14.45,13.3,0,24.78-4.62,34.44-13.85Z"/><path d="M2394.24,220.46h-136.18c3.39,12.41,9.85,21.97,19.37,28.7,9.52,6.73,21.32,10.09,35.41,10.09,19.04,0,37.04-6.6,54-19.79l21.91,36.42c-22.95,19.53-48.78,29.29-77.48,29.29-30.52,0-55.83-9.83-75.92-29.49-20.09-19.66-30.13-44-30.13-73.02s9.72-53.04,29.15-72.83c19.43-19.79,43.5-29.68,72.2-29.68,26.87,0,48.78,8.71,65.74,26.12,16.96,17.41,25.44,39.06,25.44,64.91,0,9.5-1.17,19.26-3.52,29.29Zm-118.96-66.49c-8.35,7.12-14.09,16.75-17.22,28.89h88.44c-.26-12.14-4.44-21.77-12.52-28.89-8.09-7.13-17.87-10.69-29.35-10.69s-21,3.56-29.35,10.69Z"/><path d="M2557.78,104.49v47.1h-14.09c-15.91,0-28.56,4.28-37.96,12.86-9.39,8.58-14.09,21.31-14.09,38.19v97.77h-52.83V104.49h48.53v23.75c13.3-17.42,31.04-26.13,53.21-26.13,6.52,0,12.26,.79,17.22,2.38Z"/></svg>