<?xml version="1.0" encoding="utf-8"?>
<svg xmlns="http://www.w3.org/2000/svg" fill="none" height="43" viewBox="0 0 206 43" width="206">
  <path d="M99.0499 14.6598C98.2699 13.7498 97.3099 13.0598 96.1899 12.5698C95.0599 12.0798 93.7999 11.8398 92.3799 11.8398C90.9599 11.8398 89.8999 12.0798 88.7899 12.5698C88.2499 12.8098 87.7499 13.0998 87.2899 13.4298V12.1298H80.8599V40.2098H87.2599V31.4498C87.7299 31.7898 88.2299 32.0798 88.7899 32.3298C89.9099 32.8198 90.9899 33.0598 92.3999 33.0598C93.8099 33.0598 95.0799 32.8198 96.2099 32.3298C97.3399 31.8398 98.2899 31.1498 99.0699 30.2398C99.8499 29.3298 100.44 28.2198 100.85 26.8998C101.25 25.5798 101.46 24.0998 101.46 22.4498C101.46 20.7998 101.25 19.3298 100.85 18.0098C100.44 16.6898 99.8499 15.5798 99.0699 14.6698L99.0499 14.6598ZM93.7899 26.4698C93.1799 27.2898 92.3599 27.7198 91.3599 27.7898C91.2599 27.7998 91.1699 27.8198 91.0599 27.8198C89.8399 27.8198 88.8799 27.3798 88.1999 26.4998C87.5199 25.6198 87.1699 24.3398 87.1699 22.6498C87.1699 19.0098 88.4299 17.1798 90.9399 17.1798C90.9999 17.1798 91.0599 17.1998 91.1199 17.1998C92.2699 17.2498 93.1699 17.6898 93.7999 18.5798C94.4599 19.5098 94.7899 20.8698 94.7899 22.6498C94.7899 24.2898 94.4499 25.5598 93.7799 26.4598L93.7899 26.4698Z" fill="#231F20"/>
  <path d="M55.65 21.9299C55.22 21.6099 54.54 21.2799 53.59 20.9599C52.64 20.6399 51.42 20.2599 49.93 19.8399C49.26 19.6399 48.65 19.4699 48.11 19.3399C47.57 19.1999 47.11 19.0499 46.74 18.8899C46.37 18.7299 46.09 18.5399 45.88 18.3299C45.69 18.1199 45.59 17.8399 45.59 17.4899C45.59 16.3499 46.4 15.7799 48.01 15.7799C49.62 15.7799 50.63 16.4399 50.88 17.7499H57.1C56.73 13.8499 53.65 11.8999 47.86 11.8999C45.13 11.8999 43.01 12.4799 41.51 13.6299C40.01 14.7799 39.26 16.3499 39.26 18.3399C39.26 19.1299 39.39 19.8199 39.65 20.3999C39.91 20.9899 40.3 21.4999 40.82 21.9699C41.34 22.4299 42.01 22.8399 42.81 23.2199C43.62 23.5899 44.58 23.9599 45.7 24.3399C46.6 24.6399 47.39 24.8699 48.09 25.0299C48.79 25.1899 49.38 25.3499 49.88 25.5199C50.38 25.6799 50.76 25.8699 51.01 26.0999C51.27 26.3199 51.4 26.6299 51.4 27.0299C51.4 27.6199 51.14 28.0999 50.62 28.4399C50.1 28.7899 49.38 28.9599 48.46 28.9599C46.3 28.9599 45.15 28.0899 45 26.3499H38.52C38.7 28.4599 39.61 30.0999 41.27 31.2699C42.93 32.4399 45.26 33.0199 48.26 33.0199C51.26 33.0199 53.68 32.3999 55.31 31.1799C56.93 29.9499 57.74 28.2799 57.74 26.1699C57.74 25.2499 57.57 24.4499 57.24 23.7699C56.9 23.0899 56.38 22.4699 55.66 21.9299H55.65Z" fill="#231F20"/>
  <path d="M76.1998 14.7498C75.3198 13.8098 74.2598 13.0898 73.0098 12.5898C71.7598 12.0898 70.3498 11.8398 68.7698 11.8398C67.1898 11.8398 65.8698 12.0898 64.6498 12.5698C63.4198 13.0598 62.3698 13.7598 61.4998 14.6898C60.6198 15.6198 59.9498 16.7398 59.4698 18.0698C58.9998 19.3998 58.7598 20.8898 58.7598 22.5698C58.7598 24.2498 58.9898 25.6598 59.4498 26.9398C59.9098 28.2298 60.5798 29.3198 61.4598 30.2198C62.3298 31.1198 63.3798 31.8098 64.6098 32.2998C65.8298 32.7898 67.2198 33.0298 68.7698 33.0298C71.3498 33.0298 73.4798 32.4398 75.1898 31.2498C76.8898 30.0598 78.0298 28.3698 78.5998 26.1698H72.3398C71.8898 27.6198 70.7698 28.3398 68.9998 28.3398C66.6198 28.3398 65.4398 26.9098 65.4398 24.0298H78.9098C78.9298 23.8298 78.9498 23.6398 78.9498 23.4498V22.8698C78.9498 21.1398 78.7098 19.5898 78.2398 18.2198C77.7698 16.8398 77.0898 15.6898 76.2098 14.7498H76.1998ZM65.2398 20.3598C65.3598 19.0098 65.7498 17.9898 66.3998 17.2998C67.0498 16.6098 67.8998 16.2698 68.9498 16.2698C70.0798 16.2698 70.9698 16.6298 71.6298 17.3398C72.2998 18.0498 72.6398 19.0598 72.6598 20.3598H65.2298H65.2398Z" fill="#231F20"/>
  <path d="M137.06 18.0699C136.59 16.7499 135.9 15.6399 134.99 14.7299C134.09 13.8299 132.98 13.1299 131.68 12.6499C130.38 12.1599 128.91 11.9199 127.27 11.9199C125.63 11.9199 124.16 12.1599 122.87 12.6499C121.58 13.1299 120.48 13.8299 119.57 14.7299C118.67 15.6399 117.98 16.7399 117.51 18.0499C117.04 19.3599 116.8 20.8399 116.8 22.4999C116.8 24.1599 117.04 25.6399 117.51 26.9499C117.98 28.2499 118.67 29.3599 119.56 30.2699C120.45 31.1799 121.55 31.8699 122.86 32.3599C124.16 32.8399 125.64 33.0899 127.27 33.0899C128.9 33.0899 130.38 32.8499 131.68 32.3599C132.99 31.8699 134.09 31.1799 134.99 30.2699C135.9 29.3599 136.59 28.2499 137.06 26.9299C137.53 25.6099 137.77 24.1399 137.77 22.4999C137.77 20.8599 137.53 19.3799 137.06 18.0599V18.0699ZM130.11 26.6899C129.43 27.6499 128.48 28.1299 127.26 28.1299C126.04 28.1299 125.1 27.6499 124.43 26.6899C123.76 25.7299 123.42 24.3299 123.42 22.4799C123.42 20.6299 123.75 19.2399 124.43 18.2899C125.1 17.3399 126.05 16.8699 127.26 16.8699C128.47 16.8699 129.43 17.3399 130.11 18.2899C130.79 19.2399 131.13 20.6299 131.13 22.4799C131.13 24.3299 130.79 25.7299 130.11 26.6899Z" fill="#231F20"/>
  <path d="M140.03 31.78C140.03 32.43 139.99 32.97 139.93 33.42C139.87 33.87 139.74 34.22 139.56 34.48C139.37 34.74 139.1 34.93 138.74 35.04C138.38 35.15 137.89 35.21 137.27 35.21H137.08V40.17C137.45 40.22 137.81 40.25 138.16 40.25H139.2C140.32 40.25 141.29 40.17 142.12 39.99C142.94 39.82 143.64 39.52 144.21 39.1C144.78 38.7 145.22 38.25 145.53 37.73C145.84 37.21 146.07 36.61 146.22 35.93C146.37 35.25 146.46 34.49 146.48 33.64C146.5 32.79 146.52 31.84 146.52 30.76V11.96H140.03V31.78Z" fill="#231F20"/>
  <path d="M165.53 14.7599C164.65 13.8199 163.59 13.1099 162.34 12.6099C161.09 12.1099 159.68 11.8599 158.11 11.8599C156.54 11.8599 155.21 12.0999 153.98 12.5899C152.76 13.0799 151.71 13.7799 150.83 14.7099C149.95 15.6399 149.28 16.7599 148.81 18.0799C148.33 19.3999 148.09 20.8999 148.09 22.5799C148.09 24.2599 148.32 25.6599 148.79 26.9499C149.25 28.2399 149.92 29.3299 150.79 30.2299C151.66 31.1299 152.71 31.8199 153.94 32.3099C155.16 32.7999 156.55 33.0399 158.1 33.0399C160.67 33.0399 162.81 32.4499 164.5 31.2599C166.2 30.0699 167.34 28.3799 167.91 26.1799H161.65C161.2 27.6299 160.09 28.3499 158.31 28.3499C155.94 28.3499 154.75 26.9199 154.75 24.0399H168.2C168.23 23.8399 168.24 23.6499 168.24 23.4599V22.8799C168.24 21.1599 168 19.6099 167.53 18.2399C167.06 16.8699 166.38 15.7099 165.51 14.7699L165.53 14.7599ZM154.58 20.3699C154.7 19.0199 155.09 17.9999 155.74 17.3099C156.39 16.6199 157.24 16.2799 158.29 16.2799C159.42 16.2799 160.31 16.6299 160.97 17.3499C161.63 18.0599 161.97 19.0699 162 20.3699H154.58Z" fill="#231F20"/>
  <path d="M115.52 11.8902C115.27 11.8902 115.05 11.8802 114.81 11.8902C112.64 11.9702 110.74 12.5202 109.52 13.3502V12.1202H103.15V32.5102H109.75V25.7202C109.75 24.3202 109.79 23.1602 109.86 22.2302C109.94 21.3002 110.13 20.5802 110.43 20.0702C111.2 18.8302 112.57 18.0502 114.55 18.0502C115.06 18.0502 115.61 18.0902 116.19 18.1702V11.8902C116.19 11.8902 116.11 11.8902 116.07 11.8902C115.89 11.8802 115.71 11.8902 115.51 11.8902H115.52Z" fill="#231F20"/>
  <path d="M30.36 23.15C30.36 24.81 30.12 26.03 29.63 26.81C29.14 27.59 28.29 27.98 27.08 27.98C25.97 27.98 25.24 27.63 24.87 26.92C24.51 26.22 24.32 25.12 24.32 23.63V12.41H12.71V11.69C12.71 10.62 12.71 9.48 13.06 9.03C13.41 8.59 14.06 8.42 15.03 8.42H16.2V3H13.09C10.55 3 8.74 3.5 7.66 4.5C6.58 5.5 6.04 7.19 6.04 9.55V10.2C6.04 10.2 6.04 11.09 6.04 12.42H3V17.3H6.05C6.06 23.82 6.08 32.49 6.08 32.49H12.71V17.3H17.75V26.21C17.75 30.74 19.98 33.01 24.44 33.01C24.49 33.01 24.54 33.01 24.59 33.01C24.63 33.01 24.67 33.01 24.7 33.01C24.95 33.01 25.17 32.98 25.41 32.97C27.5 32.89 29.31 32.36 30.52 31.57V32.62H36.94V12.42H30.37V23.15H30.36Z" fill="#231F20"/>
  <path d="M190.13 24.8001C189.94 27.5001 189 29.5801 187.32 31.0601C185.63 32.5301 183.31 33.2701 180.37 33.2701C178.73 33.2701 177.26 33.0201 175.97 32.5201C174.68 32.0201 173.58 31.3101 172.67 30.3801C171.76 29.4601 171.07 28.3401 170.59 27.0101C170.11 25.6901 169.87 24.2001 169.87 22.5401C169.87 20.8801 170.11 19.3901 170.59 18.0601C171.07 16.7301 171.76 15.6001 172.66 14.6801C173.55 13.7501 174.64 13.0501 175.93 12.5601C177.21 12.0701 178.65 11.8301 180.23 11.8301C183.21 11.8301 185.54 12.5401 187.2 13.9701C188.87 15.4001 189.81 17.4301 190.02 20.0701H183.77C183.56 17.9801 182.41 16.9301 180.32 16.9301C177.75 16.9301 176.47 18.8101 176.47 22.5601C176.47 26.3101 177.81 28.1901 180.49 28.1901C181.51 28.1901 182.32 27.9001 182.91 27.3301C183.51 26.7501 183.85 25.9201 183.94 24.8201H190.14L190.13 24.8001Z" fill="#231F20"/>
  <path d="M203.46 17.3001V12.4201H200.12V6.56006H193.48V12.4201H190.36V17.3001H193.48V24.1701C193.48 25.7501 193.54 27.1001 193.67 28.2201C193.8 29.3401 194.07 30.2601 194.49 30.9701C194.91 31.6801 195.52 32.2101 196.31 32.5401C197.1 32.8701 198.16 33.0401 199.48 33.0401H203.45V27.4901H202.61C201.57 27.4901 200.89 27.2401 200.59 26.7401C200.28 26.2401 200.13 25.3801 200.13 24.1601V17.3001H203.47H203.46Z" fill="#231F20"/>
</svg>