<svg xmlns="http://www.w3.org/2000/svg" width="299" height="26" viewBox="0 0 299 26"><g fill="none" fill-rule="evenodd"><path d="M209.703 25.152c1.62 0 2.86-.748 2.86-2.165 0-1.579-1.294-1.914-2.82-2.074-.803-.08-1.31-.228-1.31-.776 0-.415.48-.79 1.19-.79.804 0 1.326.308 1.419 1.151.468-.094.934-.187 1.416-.267-.2-1.511-1.43-2.112-2.875-2.112s-2.594.868-2.594 2.018c0 2.903 4.147 1.231 4.147 2.85 0 .856-1.191.95-1.433.95-1.084 0-1.405-.643-1.498-1.178-.468.08-.937.174-1.417.268.188 1.217 1.176 2.125 2.915 2.125zm4.4-.134h1.442v-6.766h-1.442v6.766zm-.094-7.797h1.63v-1.617h-1.63v1.617zm7.924 7.797h1.429V21.34c0-2.166-.734-3.208-2.675-3.221-.843 0-1.565.454-1.794.868l-.131-.735h-1.31v6.766h1.441v-3.677c0-1.338.496-1.994 1.513-1.994 1.058 0 1.526.602 1.526 1.993v3.678zm6.044-1.081c-1.136 0-1.738-.937-1.738-2.302 0-1.364.602-2.288 1.738-2.288.696 0 1.258.429 1.487 1.298.468-.08.948-.174 1.43-.267-.268-1.151-1.15-2.259-2.929-2.259-1.953 0-3.196 1.429-3.196 3.516 0 2.101 1.243 3.517 3.196 3.517 1.779 0 2.728-1.135 2.956-2.246a46.026 46.026 0 0 0-1.431-.267c-.215.843-.764 1.298-1.513 1.298zm7.204 0c-.977 0-1.66-.884-1.686-1.874h4.642c.025-.228.025-.441.025-.641 0-2.048-1.174-3.303-3.048-3.303-1.887 0-3.114 1.429-3.114 3.516 0 2.087 1.321 3.517 3.181 3.517 1.846 0 2.768-1.122 3.075-2.099-.441-.134-.881-.268-1.323-.388-.346.937-1.042 1.272-1.751 1.272zm-1.62-2.956c.04-.844.59-1.647 1.553-1.647.99 0 1.472.643 1.512 1.647h-3.065zm11.905-5.377l-2.246 1.966v1.672l2.194-1.765v6.286h-2.355v1.255h6.258v-1.255h-2.407v-8.159h-1.444zm8.258 9.548c2.449 0 3.584-1.992 3.584-4.92 0-2.074-.854-4.748-3.516-4.761-2.048 0-3.25 1.63-3.25 3.423 0 1.217.788 3.169 3.048 3.169 1.005 0 1.994-.548 2.236-1.296 0 .935-.255 3.116-2.101 3.116-.722 0-1.177-.335-1.525-1.138l-1.471.255c.387 1.364 1.617 2.152 2.995 2.152zm1.874-6.325c0 1.003-.537 2.074-1.806 2.074-1.273 0-1.806-1.071-1.806-2.074 0-1.004.534-2.074 1.806-2.074 1.27 0 1.805 1.07 1.805 2.074zm6.191 6.325c2.449 0 3.584-1.992 3.584-4.92 0-2.074-.856-4.748-3.517-4.761-2.048 0-3.25 1.63-3.25 3.423 0 1.217.788 3.169 3.05 3.169 1.003 0 1.993-.548 2.234-1.296 0 .935-.255 3.116-2.1 3.116-.725 0-1.179-.335-1.526-1.138l-1.47.255c.388 1.364 1.618 2.152 2.995 2.152zm1.874-6.325c0 1.003-.536 2.074-1.808 2.074-1.27 0-1.805-1.071-1.805-2.074 0-1.004.536-2.074 1.805-2.074 1.272 0 1.808 1.07 1.808 2.074zm8.758-3.223h-6.258v1.269h4.654l-3.598 8.145h1.618l3.584-8.198v-1.216zM213.824.001l-2.288 7.395L209.249 0h-2.06v9.414h1.497v-6.62l2.074 6.62h1.55l2.076-6.62v6.62h1.496V0h-2.058zm6.778 8.332c-.976 0-1.66-.883-1.685-1.874h4.64c.027-.227.027-.44.027-.641 0-2.047-1.175-3.303-3.048-3.303-1.887 0-3.116 1.43-3.116 3.517 0 2.087 1.323 3.517 3.182 3.517 1.847 0 2.769-1.122 3.076-2.1-.441-.133-.882-.267-1.324-.387-.346.937-1.043 1.27-1.752 1.27zm-1.62-2.955c.04-.844.59-1.647 1.554-1.647.99 0 1.472.642 1.512 1.647h-3.065zm7.32.654c0-1.472.696-2.288 1.74-2.288 1.043 0 1.672.816 1.672 2.288 0 1.485-.63 2.3-1.672 2.3-1.044 0-1.74-.815-1.74-2.3zM231.17 0h-1.456v3.463c-.267-.388-1.044-.95-1.953-.95-1.833 0-2.93 1.43-2.93 3.518 0 2.087 1.23 3.517 2.93 3.517.962 0 1.71-.601 1.953-.975l.133.84h1.323V.002zm1.913 9.414h1.443V2.649h-1.443v6.766zm-.094-7.797h1.63V0h-1.63v1.617zm6.252 6.715c-1.137 0-1.738-.936-1.738-2.301 0-1.365.6-2.288 1.738-2.288.695 0 1.258.428 1.484 1.298.469-.08.95-.174 1.432-.268-.268-1.15-1.15-2.26-2.93-2.26-1.951 0-3.194 1.43-3.194 3.518 0 2.1 1.243 3.517 3.194 3.517 1.78 0 2.729-1.136 2.956-2.246-.467-.094-.95-.187-1.43-.268-.214.843-.763 1.298-1.512 1.298zm7.123-4.59c1.244 0 1.459.71 1.459 1.233v.402h-1.74c-1.78 0-2.754.96-2.754 2.018 0 1.285.934 2.153 2.5 2.153a2.817 2.817 0 0 0 2.114-1.002c.107.547.48.962 1.175.962.174 0 .44 0 .855-.107V8.225c-.066.026-.24.053-.346.053-.282 0-.363-.227-.363-.63V5.298c0-1.847-.987-2.782-2.9-2.782-1.418 0-2.648.695-2.795 2.193.48.08.962.188 1.43.268.027-.817.535-1.232 1.365-1.232zm-.375 4.59c-.884 0-1.191-.482-1.191-.937 0-.334.24-.937 1.43-.937h1.595v.335c0 .736-.656 1.539-1.834 1.539zm5.272 1.082h1.443V0h-1.443v9.414zm6.552 0h3.544c2.609 0 3.852-1.858 3.852-4.707 0-2.796-1.31-4.68-3.918-4.707h-3.478v9.414zm3.478-8.145c1.47 0 2.38 1.204 2.38 3.438 0 2.22-.91 3.45-2.38 3.45h-1.994V1.27h1.994zm8.363 7.063c-.977 0-1.66-.883-1.686-1.874h4.64c.027-.227.027-.44.027-.641 0-2.047-1.175-3.303-3.048-3.303-1.886 0-3.116 1.43-3.116 3.517 0 2.087 1.323 3.517 3.183 3.517 1.846 0 2.768-1.122 3.074-2.1-.44-.133-.882-.267-1.322-.387-.348.937-1.043 1.27-1.752 1.27zm-1.62-2.955c.04-.844.589-1.647 1.553-1.647.99 0 1.47.642 1.51 1.647h-3.062zm8.795 4.17c1.619 0 2.86-.747 2.86-2.165 0-1.578-1.295-1.913-2.82-2.073-.804-.081-1.312-.228-1.312-.776 0-.415.482-.79 1.192-.79.803 0 1.325.308 1.418 1.15.468-.093.935-.187 1.417-.267-.201-1.511-1.43-2.112-2.875-2.112-1.446 0-2.594.869-2.594 2.019 0 2.903 4.146 1.23 4.146 2.849 0 .857-1.191.95-1.432.95-1.084 0-1.405-.642-1.498-1.177-.468.08-.937.174-1.417.267.187 1.217 1.176 2.126 2.915 2.126zm4.399-.133h1.443V2.649h-1.443v6.766zm-.093-7.797h1.63V0h-1.63v1.617zm9.406 1.03h-1.323l-.133.87c-.241-.468-1.004-1.003-1.901-1.003-1.765 0-2.981 1.443-2.981 3.517 0 2.087 1.283 3.517 2.98 3.517.79 0 1.633-.428 1.902-.922v.508c0 1.07-.55 1.833-1.673 1.833-.736 0-1.378-.388-1.525-.937l-1.417.388c.293 1.11 1.417 1.764 2.942 1.764 1.793 0 3.129-1.028 3.129-3.048V2.649zm-1.456 3.385c0 1.484-.63 2.3-1.673 2.3-1.058 0-1.753-.816-1.753-2.3 0-1.473.695-2.29 1.753-2.29 1.044 0 1.673.817 1.673 2.289zm7.8 3.382h1.428V5.737c0-2.166-.734-3.208-2.674-3.222-.842 0-1.565.455-1.793.869l-.133-.735h-1.31v6.766h1.443V5.738c0-1.338.496-1.994 1.513-1.994 1.057 0 1.526.602 1.526 1.993v3.678zM168.684 24.669v-9.881c0-5.257-1.472-8.2-6.307-8.2-2.068 0-4.38 1.086-5.327 2.663-.595-1.051-1.997-2.663-4.94-2.663-2.068 0-4.17 1.297-4.696 2.278l-.35-1.928h-3.434v17.73h3.784v-9.88c0-2.7.736-4.976 3.434-4.976 2.839 0 3.434 2.277 3.434 4.976v9.88h3.785v-9.88c0-2.734.595-5.011 3.434-5.011 2.698 0 3.434 2.347 3.434 5.01v9.882h3.749zm-30.219.245c.456 0 1.157 0 2.243-.28V21.55c-.175.07-.631.14-.911.14-.736 0-.946-.595-.946-1.646v-6.167c0-4.836-2.593-7.29-7.604-7.29-3.714 0-6.938 1.823-7.324 5.748 1.262.21 2.523.49 3.75.7.07-2.137 1.401-3.223 3.574-3.223 3.259 0 3.819 1.857 3.819 3.224v1.05h-4.555c-4.66 0-7.218 2.524-7.218 5.292 0 3.364 2.453 5.64 6.552 5.64 2.979-.07 4.836-1.751 5.537-2.627.28 1.437 1.261 2.523 3.083 2.523zm-3.399-7.113c0 1.927-1.717 4.03-4.8 4.03-2.313 0-3.119-1.262-3.119-2.453 0-.876.631-2.453 3.75-2.453h4.169v.876zm-26.946-.876h12.159c.07-.596.07-1.156.07-1.682 0-5.361-3.083-8.655-7.989-8.655-4.941 0-8.164 3.749-8.164 9.216 0 5.466 3.469 9.215 8.339 9.215 4.836 0 7.254-2.943 8.06-5.501-1.157-.35-2.313-.701-3.469-1.016-.911 2.453-2.734 3.329-4.591 3.329-2.558 0-4.345-2.313-4.415-4.906zm.175-2.838c.105-2.208 1.542-4.31 4.065-4.31 2.593 0 3.855 1.682 3.96 4.31h-8.025zM99.844 3.224h6.377V0H89.542v3.224h6.412v21.445h3.89V3.224zM62.54 24.669h3.469V-.001H62.19v9.077c-.701-1.016-2.733-2.488-5.116-2.488-4.801 0-7.674 3.749-7.674 9.216 0 5.466 3.224 9.215 7.674 9.215 2.523 0 4.485-1.576 5.116-2.558l.35 2.208zm-.35-8.865c0 3.889-1.647 6.027-4.38 6.027-2.733 0-4.555-2.138-4.555-6.027 0-3.855 1.822-5.992 4.555-5.992 2.733 0 4.38 2.137 4.38 5.992zm-20.148 8.865h3.784V-.001h-3.784v24.67zm-16.07-7.744h12.159c.07-.596.07-1.156.07-1.682 0-5.361-3.083-8.655-7.989-8.655-4.941 0-8.165 3.749-8.165 9.216 0 5.466 3.47 9.215 8.34 9.215 4.836 0 7.254-2.943 8.06-5.501-1.157-.35-2.313-.701-3.469-1.016-.912 2.453-2.734 3.329-4.591 3.329-2.558 0-4.345-2.313-4.415-4.906zm.175-2.838c.105-2.208 1.542-4.31 4.065-4.31 2.593 0 3.854 1.682 3.96 4.31h-8.025zm-11.64 10.582h3.924V-.001h-3.924v10.338H3.924V0H0v24.669h3.924V13.666h10.583v11.003z" fill="#192F50"/><path fill="#A0BEE5" d="M79.012 6.938v7.249l-7.219.009v3.216l7.219.006v7.251h3.889v-7.251l7.184-.006v-3.216l-7.184-.009V6.938z"/></g></svg>