<?xml version="1.0" encoding="UTF-8"?>
<svg xmlns="http://www.w3.org/2000/svg" viewBox="0 0 806 250.17">
    <title>Native Design Ltd logo</title>
    <path style="fill: rgb(68,64,61)" d="M631.18,72.39c-9,.69-13.49,6.52-12.79,14.55.49,5.68,7,13,10.28,22.84,4.12,12.36,2,34.09-10.37,52.35-11.5,16.9-37.86,38.9-45.45,45.08a1.41,1.41,0,0,1-2.31-.95,120.64,120.64,0,0,0-9.55-34.2c-5.4-12.25-13.29-29.75-10.84-50.73,2.39-20.39,18.52-38.67,18.52-38.67l-3-3s-18.19,14.61-32.27,32c-29.15,36-9.75,62.38-1.4,86.92,5.42,15.93,8,21.57,8,29.61,0,5.72-2.54,12.05-4,15.24h4.87a1.35,1.35,0,0,0,1.1-.53c4.4-5.73,14.58-15.72,27.76-27.13,18.16-15.75,36.36-30.27,52.5-46.86,20.32-20.89,28.51-44.82,31-59.37s-.13-26.29-4.14-30.81-7.69-7.12-17.94-6.33" transform="translate(0 -0.01)"/>
    <path style="fill: rgb(68,64,61)" d="M143.24,87.92c-10.68-9.42-24-15.35-46.77-15.35C73.05,72.57,62,90.48,58.53,96.35A68.43,68.43,0,0,0,53.33,107l-.4-26a1.45,1.45,0,0,0-1.45-1.43H0l2.11,3.72H14a1.49,1.49,0,0,1,1.48,1.49V238.27a1.44,1.44,0,0,1-1.44,1.44H0v3.76H51.54a1.38,1.38,0,0,0,1.38-1.38V140.85c0-18.05,3.22-36.68,15.89-52s30.85-14.56,40.13-9.73,14.74,19.52,14.74,38.4V242a1.44,1.44,0,0,0,1.44,1.44h34.5a1.44,1.44,0,0,0,1.44-1.44V133.57c0-22.06-8.47-37.42-17.81-45.65" transform="translate(0 -0.01)"/>
    <path style="fill: rgb(68,64,61)" d="M471,45.07a22.63,22.63,0,1,0-19.51-19.49A22.64,22.64,0,0,0,471,45.07" transform="translate(0 -0.01)"/>
    <path style="fill: rgb(68,64,61)" d="M491.45,79.63H392.82V40.09l-37.28,8V79.63H326.39l2.73,3.73h26.42v118.1A89.94,89.94,0,0,0,357,218.54c0,.11,0,.19,0,.3-1,3.07-8.23,25-29.91,25.59-6.52.16-10.25-4.92-10.25-13,0-1.76,0-11.59,0-23l0,0c-.08-24.08-.21-63.69-.21-81.47,0-24.53-20-39.27-20.76-40C285.12,78.8,273,72.39,251.68,72.39c-29.55,0-42.88,12.77-50.85,20.65-18.13,17.91-11.93,38.93.67,42.8,6.4,2,15,1,19.11-1.29,4.56-2.47,6.39-7.78,6.45-11.1.14-7.33-4.35-10.3-4.54-20.69-.13-7.18,5.66-19.08,17.57-24.23A28.4,28.4,0,0,1,269.39,83c7.59,6.66,10.93,17.49,10.93,27.62s-.13,21.56-.13,21.56c0,10.51-5.19,18.78-21.3,25.42-11.28,4.67-31.82,9.72-50.06,15.58-16,5.15-27.43,12.78-31.55,25.82s-1.86,26.24,9.58,36.88,28.23,12.53,42.47,12.38c45.57-.48,51.4-31.93,51.4-31.93l0-.06c2,10.8,5.93,32.66,38.09,33.83,10.11.37,28.71-3.92,38.48-21.41a1.49,1.49,0,0,1,2.7.17A35.62,35.62,0,0,0,368,241.18c6.62,6.49,15.39,9,27.1,9s21.17-3.36,27.39-8.65c9.29-7.88,12-20.56,12-20.56l-4.09-.74a40.25,40.25,0,0,1-7.77,14.91,26.24,26.24,0,0,1-19.31,9.32c-6.52,0-10.52-4.92-10.52-13s0-147.49,0-148.06h61V237.85a1.86,1.86,0,0,1-1.86,1.86H439.59v3.76h66.24v-3.76H493.32a1.86,1.86,0,0,1-1.86-1.86Zm-250,161.89c-9.86,0-27.56-2.53-29-29.55-.84-15.43,3.24-27,13.58-34.75,9.06-6.79,14.38-8.12,27.16-13.32s15.47-6.68,19.74-9.47a25.8,25.8,0,0,0,6.35-6.24s.4,38.57.4,50.7c0,11.38-6,42.63-38.21,42.63" transform="translate(0 -0.01)"/>
    <path style="fill: rgb(68,64,61)" d="M804.58,152.05a1.41,1.41,0,0,0,1.42-1.42c0-6.1-1.29-30.69-17.38-52.09-21-28-70.23-40.8-105.85-1-31.65,35.37-31.82,81-16,111.23,19.34,36.84,62.64,47,94.65,38.1,33.16-9.21,43.35-36.3,43.35-36.3l-3.6-1.41s-9.7,21.65-30.65,30.36c-15.38,6.39-25.87,7.28-37.45,6.19-12.52-1.19-18.63-7.43-23.57-13.38-5.79-7-9.88-19-10.38-46.54-.38-20.65-.3-29.33-.24-32.36a1.42,1.42,0,0,1,1.42-1.39Zm-104.46-3.69a1.41,1.41,0,0,1-1.42-1.36,232.27,232.27,0,0,1,3.25-42.27c2.4-14.35,10-27.9,32.62-28.16,26.79-.3,31,15.06,33.68,34.35a220.09,220.09,0,0,1,1.67,36,1.47,1.47,0,0,1-1.47,1.41H700.11" transform="translate(0 -0.01)"/>
</svg>
