<?xml version="1.0" encoding="utf-8"?>
<!-- Generator: Adobe Illustrator 15.1.0, SVG Export Plug-In . SVG Version: 6.00 Build 0)  -->
<!DOCTYPE svg PUBLIC "-//W3C//DTD SVG 1.1//EN" "http://www.w3.org/Graphics/SVG/1.1/DTD/svg11.dtd">
<svg version="1.1" id="Layer_1" xmlns="http://www.w3.org/2000/svg" xmlns:xlink="http://www.w3.org/1999/xlink" x="0px" y="0px"
	 width="124.048px" height="28.346px" viewBox="0 0 124.048 28.346" enable-background="new 0 0 124.048 28.346"
	 xml:space="preserve">
<path d="M44.563,28.057L61.891,13.62c1.257-1.047,0.516-3.095-1.121-3.095H46.081c-5.487,0-9.932,4.443-9.932,9.928v7.604H22.198
	c-2.583,0-4.674-2.099-4.674-4.68V12.272c0-0.966-0.784-1.748-1.753-1.748H9.347v17.532H4.672c-2.59,0-4.672-2.099-4.672-4.68V1.174
	h9.348h7.175c6.423,0,10.355,3.627,10.355,9.751v7.776c0.91-9.922,9.237-17.527,19.204-17.527h10.12h5.064
	c1.708,0,3.334,0.083,4.97,0.727c6.813,2.684,8.868,11.346,3.979,16.801h6.718V5.716L86.281,0v23.377c0,2.581-2.094,4.68-4.677,4.68
	H44.563z"/>
<polygon points="106.777,28.346 107.028,20.016 99.976,24.41 96.521,18.331 103.81,14.453 96.521,10.525 99.976,4.448 
	107.028,8.834 106.777,0.586 113.781,0.586 113.531,8.834 120.579,4.448 124.046,10.525 116.747,14.453 124.046,18.331 
	121.032,23.608 120.579,24.41 113.531,20.016 113.781,28.346 "/>
</svg>
