<svg xmlns="http://www.w3.org/2000/svg" width="139.742" height="24.102" viewBox="0 0 139.742 24.102">
  <g id="Gruppe_1" data-name="Gruppe 1" transform="translate(-399 -336)">
    <path id="Pfad_1" data-name="Pfad 1" d="M491.284,359.767H495.8V336.335h-4.519v9.652H479.568v-9.652h-4.519v23.432h4.519V350h11.716v9.763Zm11.278-11.716a7.706,7.706,0,1,1,7.7,8.034,7.777,7.777,0,0,1-7.7-8.034Zm-4.519,0A12.219,12.219,0,1,0,510.262,336a11.835,11.835,0,0,0-12.218,12.051Zm40.838-7.7v-4.017H524.823v23.432h14.394V355.75h-9.875V350h7.2v-4.017h-7.2v-5.635Zm3.012,19.415h4.519V344.5l13.055,15.264h3.18V336.335h-4.519V351.6l-13.055-15.264h-3.18v23.432Zm24.771,0h4.519V336.335h-4.519v23.432Z" transform="translate(-57.304)" fill="#fa0000"/>
    <path id="Pfad_2" data-name="Pfad 2" d="M406.716,337.31H399v23.456h4.511V354h3.2c5.4,0,9.022-3.354,9.022-8.345,0-4.757-3.878-8.345-9.022-8.345Zm0,12.633h-3.2v-8.585h3.2a4.2,4.2,0,0,1,4.511,4.3c0,2.673-1.876,4.288-4.511,4.288Z" transform="translate(0 -0.986)" fill="#fa0000"/>
    <path id="Pfad_3" data-name="Pfad 3" d="M870.768,337.314l17.846,23.455h5.61l-17.846-23.455Z" transform="translate(-355.482 -0.99)" fill="#fa0000"/>
    <path id="Pfad_4" data-name="Pfad 4" d="M894.224,337.283l-17.846,23.455h-5.61l17.846-23.455Z" transform="translate(-355.482 -0.967)" fill="#fa0000"/>
  </g>
</svg>
