<svg xmlns="http://www.w3.org/2000/svg" viewBox="0 0 240 24.942" fill="currentColor"><g transform="translate(0 0)"><path d="M223.823,14.868h-4.782l3.4-3.766h4.783Zm-87.284,0h-4.782l3.4-3.766h4.782Zm91.963,0L233.251,9.6H219.11l-4.749,5.265H204.8q1.643-1.823,3.288-3.646c.278-.309.649-.508.536-1.042-.116-.552-.475-.578-.944-.578H195.4l-4.748,5.265H180.362L185.109,9.6h-4.678l-4.748,5.265h-9.566l2.5-2.777c.209-.231.419-.463.628-.7a4.236,4.236,0,0,0,.612-.7.624.624,0,0,0-.106-.865c-.265-.276-.553-.224-.871-.224H161.4l1.18-1.308H157.9q-1.61,1.784-3.219,3.569a8.272,8.272,0,0,1-3.883,2.706,16.191,16.191,0,0,1-4.776.3h-4.809L145.967,9.6H122.29q1.391-1.541,2.779-3.081A17.376,17.376,0,0,1,128,3.606c2.607-1.8,5.2-1.468,8-1.468L137.933,0H131.91c-2.271,0-3.731-.035-5.848,1.085a16.541,16.541,0,0,0-4.417,4.045q-2.016,2.238-4.033,4.473h-5l-1.352,1.5h5l-3.395,3.766H101.853l3.288-3.646c.279-.309.649-.508.536-1.042-.116-.552-.475-.578-.944-.578H92.461l-4.749,5.265H77.419L82.168,9.6H77.489l-4.75,5.265H63.174l3.288-3.646c.279-.309.648-.508.537-1.042-.117-.552-.475-.578-.946-.578H53.782l-4.748,5.265H38.74L43.488,9.6H38.809l-4.748,5.265H24.5L27,12.091l.628-.7a4.256,4.256,0,0,0,.612-.7.626.626,0,0,0-.106-.865c-.265-.276-.553-.224-.872-.224H19.782l1.179-1.308H16.283l-5.929,6.574H1.616L0,16.661H8.737L1.268,24.942h4.68L18.429,11.1h4.783q-1.665,1.845-3.329,3.691a4.237,4.237,0,0,0-.756.97.729.729,0,0,0,.654.9c.827.062,1.65,0,2.474,0H52.1L57.108,11.1h4.783q-1.667,1.845-3.329,3.691a4.2,4.2,0,0,0-.756.97.728.728,0,0,0,.654.9c.827.062,1.649,0,2.473,0h29.84L95.788,11.1h4.782l-3.613,4.007c-.318.353-.7.61-.4,1.169s.748.383,1.207.383h13.487l-7.468,8.281h4.678L120.937,11.1h9.535q-1.775,1.969-3.552,3.938c-.306.34-.72.563-.506,1.143s.659.476,1.129.476h18.564c1.767,0,3.534.086,5.3-.016,4.39-.252,6.1-2.73,8.639-5.543h4.783q-1.665,1.845-3.329,3.691a4.2,4.2,0,0,0-.755.97.728.728,0,0,0,.653.9c.827.062,1.65,0,2.474,0h29.841L198.73,11.1h4.783l-3.834,4.251a.735.735,0,0,0,.114,1.219,5.717,5.717,0,0,0,1.411.088h37.178L240,14.868Z" transform="translate(0 0)"></path><path d="M106.753,12.181h-4.679l-1.946,2.159h4.679Z" transform="translate(-59.106 -7.19)"></path><path d="M452.425,12.181h-4.679L445.8,14.34h4.678Z" transform="translate(-263.155 -7.19)"></path><path d="M201.16,12.181h-4.679l-1.948,2.159h4.68Z" transform="translate(-114.833 -7.19)"></path></g></svg>
