<svg width="153" height="24" viewBox="0 0 153 24" fill="none" xmlns="http://www.w3.org/2000/svg">
<g clip-path="url(#clip0_2_472)">
<path d="M5.93948 11.079C3.3255 10.5643 2.5066 10.145 2.5066 9.30267C2.5066 8.29918 3.83514 7.63553 5.48958 7.63553C7.39732 7.63553 8.52926 8.52981 8.51414 9.6975V9.75248H10.6147V9.68451C10.6147 7.31172 8.69107 5.75303 5.50243 5.75303C2.47787 5.75303 0.360679 7.25979 0.360679 9.30038C0.360679 11.7556 2.56483 12.3551 5.41321 12.9554C8.41054 13.5855 8.72056 14.1429 8.72056 14.9983C8.72056 16.0338 7.53947 16.7914 5.48579 16.7914C4.11038 16.7914 2.04385 16.3332 2.04385 14.3041V14.0047H0V14.327C0 16.9304 1.90396 18.706 5.4185 18.706C8.6941 18.706 10.8446 17.1519 10.8446 14.8112C10.8446 12.1161 8.7682 11.6357 5.93948 11.079" fill="black"/>
<path d="M130.139 6.05469L127.136 14.8746L124.576 7.50494H122.756L120.162 14.8692L117.311 6.05469H115.159L119.247 18.3845H121.019L123.649 10.8003L126.236 18.3112L126.262 18.3876H127.984L132.274 6.05774L130.139 6.05469Z" fill="black"/>
<path d="M49.9847 5.74704C49.1987 5.71298 48.4157 5.86426 47.6977 6.18889C46.9796 6.51352 46.3463 7.00258 45.8479 7.61733C45.4588 7.01638 44.9216 6.52797 44.2891 6.20007C43.6567 5.87217 42.9506 5.71605 42.2403 5.74704C41.6154 5.73655 40.9948 5.85357 40.4157 6.09109C39.8366 6.32861 39.311 6.68174 38.8702 7.12933L38.7833 6.06016H36.8778V18.3877H38.8906V10.2971C38.8906 8.93317 40.4589 7.6685 42.04 7.6685C43.7133 7.6685 44.5851 8.51925 44.5851 10.065V18.3892H46.6018V10.2971C46.6018 8.62846 48.2048 7.6685 49.7859 7.6685C51.4592 7.6685 52.3386 8.59485 52.3386 10.065V18.3892H54.3522V9.84731C54.3522 6.68257 51.618 5.74704 49.9847 5.74704" fill="black"/>
<path d="M77.6839 14.1459C77.6839 15.5099 76.1156 16.7745 74.5345 16.7745C72.8612 16.7745 71.8185 15.9238 71.8185 14.3781V6.05841H69.8019V14.5148C69.8019 16.0276 70.8658 18.6975 74.3342 18.6975C74.9631 18.6931 75.5848 18.5626 76.1634 18.3135C76.7419 18.0644 77.2657 17.7017 77.7043 17.2465L77.7912 18.3852H79.6967V6.05841H77.6839V14.1459Z" fill="black"/>
<path d="M14.1975 11.329C14.3325 10.3365 14.8111 9.42426 15.5483 8.754C16.2856 8.08374 17.234 7.69869 18.2254 7.66708C19.2194 7.68518 20.1734 8.06593 20.9111 8.73901C21.6488 9.4121 22.1205 10.332 22.239 11.329H14.1975ZM18.2163 5.76548C16.5562 5.81576 14.9802 6.51476 13.8201 7.71529C12.6601 8.91581 12.0066 10.5242 11.9973 12.2016C11.988 13.8791 12.6236 15.4947 13.7702 16.7083C14.9168 17.9219 16.485 18.6387 18.1445 18.7078C19.3523 18.7099 20.5338 18.3519 21.5409 17.6785C22.548 17.0052 23.3359 16.0466 23.8057 14.9229L21.9275 14.2669L21.811 14.4762C21.4311 15.2729 20.8051 15.9234 20.0272 16.3294C19.2494 16.7355 18.362 16.8752 17.4987 16.7275C16.6354 16.5798 15.843 16.1527 15.241 15.5105C14.639 14.8683 14.26 14.0459 14.1612 13.1672H24.3169C24.3539 12.8549 24.373 12.5408 24.3743 12.2263C24.3918 11.3933 24.2462 10.5649 23.9458 9.78884C23.6455 9.01277 23.1963 8.30425 22.6242 7.70395C22.052 7.10364 21.3681 6.62338 20.6117 6.29073C19.8553 5.95807 19.0412 5.77958 18.2163 5.76548" fill="black"/>
<path d="M134.262 11.329C134.397 10.3364 134.875 9.42423 135.613 8.75397C136.35 8.08372 137.298 7.69867 138.29 7.66705C139.284 7.68515 140.238 8.06591 140.975 8.73899C141.713 9.41207 142.185 10.332 142.303 11.329H134.262ZM138.282 5.76546C136.622 5.81596 135.046 6.51517 133.886 7.71583C132.727 8.91649 132.073 10.5249 132.064 12.2023C132.055 13.8798 132.691 15.4953 133.837 16.7088C134.984 17.9222 136.552 18.6388 138.212 18.7077C139.42 18.7099 140.601 18.3518 141.608 17.6785C142.615 17.0052 143.403 16.0466 143.873 14.9229L141.995 14.2669L141.878 14.4761C141.499 15.2739 140.873 15.9254 140.095 16.3322C139.317 16.7391 138.428 16.8792 137.564 16.7314C136.7 16.5836 135.908 16.1559 135.305 15.513C134.703 14.87 134.324 14.0466 134.226 13.1672H144.382C144.419 12.8549 144.438 12.5408 144.439 12.2263C144.457 11.3932 144.311 10.5649 144.01 9.78893C143.709 9.01294 143.26 8.30451 142.688 7.70427C142.116 7.10403 141.432 6.62379 140.675 6.29108C139.919 5.95838 139.105 5.77976 138.28 5.76546" fill="black"/>
<path d="M150.464 0.665939V18.3836H152.477V0L150.464 0.665939Z" fill="black"/>
<path d="M146.044 18.3866H148.057V0L146.044 0.665939V18.3866Z" fill="black"/>
<path d="M29.9482 15.6698L26.3377 6.05566H24.1146L28.8594 18.7116L26.9743 23.7886H29.1362L35.8257 6.0549H33.5807L29.9482 15.6698Z" fill="black"/>
<path d="M62.0573 16.6615C61.4889 16.6634 60.9261 16.5485 60.4031 16.3238C59.88 16.099 59.4078 15.7691 59.015 15.3542C58.6222 14.9393 58.3171 14.448 58.1183 13.9102C57.9195 13.3724 57.8311 12.7994 57.8585 12.226C57.8332 11.6531 57.9231 11.0811 58.1227 10.5443C58.3224 10.0075 58.6276 9.51714 59.0201 9.10276C59.4125 8.68838 59.8839 8.35859 60.406 8.13328C60.9281 7.90797 61.4899 7.79181 62.0577 7.79181C62.6254 7.79181 63.1873 7.90797 63.7093 8.13328C64.2314 8.35859 64.7029 8.68838 65.0953 9.10276C65.4877 9.51714 65.7929 10.0075 65.9926 10.5443C66.1922 11.0811 66.2821 11.6531 66.2569 12.226C66.2843 12.7994 66.1959 13.3724 65.997 13.9102C65.7982 14.448 65.4931 14.9393 65.1003 15.3542C64.7075 15.7691 64.2353 16.099 63.7123 16.3238C63.1892 16.5485 62.6264 16.6634 62.058 16.6615H62.0573ZM62.058 5.72237C60.7767 5.68545 59.5137 6.03545 58.4304 6.72761C57.3472 7.41977 56.493 8.42261 55.9772 9.60782C55.4614 10.793 55.3075 12.1067 55.5351 13.3808C55.7627 14.6548 56.3615 15.8313 57.2548 16.7598C58.1481 17.6882 59.2954 18.3263 60.5499 18.5925C61.8043 18.8587 63.1089 18.7408 64.2966 18.254C65.4844 17.7671 66.5013 16.9335 67.2173 15.8596C67.9333 14.7858 68.3158 13.5206 68.3159 12.226C68.3376 11.3813 68.192 10.5408 67.8875 9.75385C67.583 8.96688 67.1258 8.24934 66.5428 7.64341C65.9597 7.03748 65.2626 6.55539 64.4925 6.22549C63.7223 5.89559 62.8946 5.72453 62.058 5.72237Z" fill="black"/>
<path d="M109.046 16.6615C108.478 16.6634 107.915 16.5485 107.392 16.3238C106.869 16.099 106.396 15.7691 106.004 15.3542C105.611 14.9393 105.306 14.448 105.107 13.9102C104.908 13.3724 104.82 12.7994 104.847 12.226C104.822 11.6531 104.912 11.0811 105.111 10.5443C105.311 10.0075 105.616 9.51714 106.009 9.10276C106.401 8.68838 106.873 8.35859 107.395 8.13328C107.917 7.90797 108.479 7.79181 109.046 7.79181C109.614 7.79181 110.176 7.90797 110.698 8.13328C111.22 8.35859 111.691 8.68838 112.084 9.10276C112.476 9.51714 112.782 10.0075 112.981 10.5443C113.181 11.0811 113.271 11.6531 113.246 12.226C113.273 12.7994 113.185 13.3724 112.986 13.9102C112.787 14.448 112.482 14.9393 112.089 15.3542C111.696 15.7691 111.224 16.099 110.701 16.3238C110.178 16.5485 109.615 16.6634 109.047 16.6615H109.046ZM109.047 5.72237C107.765 5.68545 106.502 6.03545 105.419 6.72761C104.336 7.41977 103.482 8.42261 102.966 9.60782C102.45 10.793 102.296 12.1067 102.524 13.3808C102.751 14.6548 103.35 15.8313 104.243 16.7598C105.137 17.6882 106.284 18.3263 107.539 18.5925C108.793 18.8587 110.098 18.7408 111.285 18.254C112.473 17.7671 113.49 16.9335 114.206 15.8596C114.922 14.7858 115.304 13.5206 115.305 12.226C115.326 11.3813 115.181 10.5408 114.876 9.75385C114.572 8.96688 114.114 8.24934 113.531 7.64341C112.948 7.03748 112.251 6.55539 111.481 6.22549C110.711 5.89559 109.883 5.72453 109.047 5.72237" fill="black"/>
<path d="M95.5901 16.6791C93.4979 16.6791 91.8231 14.876 91.8231 12.2137C91.8231 9.59429 93.4971 7.74844 95.5901 7.74844C97.6831 7.74844 99.5085 9.74779 99.5085 12.2137C99.5085 14.6797 97.6831 16.6791 95.5901 16.6791ZM95.5682 5.73611C94.8418 5.74641 94.1253 5.90815 93.4637 6.21119C92.802 6.51423 92.2095 6.95205 91.7232 7.49719L91.5622 6.07137H89.7475V9.34685C89.7475 9.34685 89.6991 15.0852 89.7475 15.1341V23.7432H91.7195V16.9227C92.1966 17.4889 92.789 17.9446 93.4563 18.2586C94.1237 18.5727 94.8502 18.7377 95.5864 18.7426C96.4064 18.7178 97.2136 18.5297 97.9616 18.1892C98.7095 17.8487 99.3836 17.3623 99.945 16.7581C100.506 16.1539 100.944 15.4436 101.233 14.6681C101.522 13.8926 101.657 13.0671 101.629 12.239C101.629 8.6496 99.0268 5.73535 95.566 5.73535" fill="black"/>
<path d="M83.6733 7.13244L83.5848 6.06327H81.6793V18.3908H83.6922V10.2957C83.6922 8.9317 85.2604 7.66703 86.8415 7.66703C87.3518 7.66988 87.8597 7.73657 88.3538 7.86559V5.9869C87.9304 5.8426 87.4879 5.76332 87.0411 5.75169C86.4166 5.74069 85.7963 5.85734 85.2175 6.09462C84.6388 6.3319 84.1135 6.68491 83.6733 7.13244V7.13244Z" fill="black"/>
</g>
<defs>
<clipPath id="clip0_2_472">
<rect width="152.477" height="23.7898" fill="white"/>
</clipPath>
</defs>
</svg>
