<?xml version="1.0" encoding="utf-8"?>
<!-- Generator: Adobe Illustrator 16.0.0, SVG Export Plug-In . SVG Version: 6.00 Build 0)  -->
<!DOCTYPE svg PUBLIC "-//W3C//DTD SVG 1.1//EN" "http://www.w3.org/Graphics/SVG/1.1/DTD/svg11.dtd">
<svg version="1.1" id="图层_1" xmlns="http://www.w3.org/2000/svg" xmlns:xlink="http://www.w3.org/1999/xlink" x="0px" y="0px"
	 width="529.646px" height="173.562px" viewBox="0 0 529.646 173.562" enable-background="new 0 0 529.646 173.562"
	 xml:space="preserve">
<rect x="494.003" y="49.24" width="31.093" height="124.322"/>
<path fill="#E95F00" d="M529.646,20.098c0,1.36-0.136,2.721-0.408,4.054c-0.264,1.292-0.656,2.558-1.17,3.773
	c-1.007,2.379-2.48,4.558-4.308,6.385c-1.826,1.828-4.006,3.301-6.386,4.309c-1.215,0.513-2.479,0.905-3.771,1.169
	c-1.333,0.272-2.693,0.409-4.055,0.409c-1.359,0-2.721-0.136-4.054-0.409c-1.292-0.264-2.558-0.656-3.772-1.169
	c-2.378-1.008-4.559-2.481-6.386-4.309c-1.826-1.827-3.301-4.006-4.308-6.385c-0.514-1.215-0.906-2.481-1.17-3.773
	c-0.272-1.333-0.408-2.693-0.408-4.054c0-1.36,0.136-2.721,0.408-4.054c0.264-1.292,0.656-2.558,1.17-3.772
	c1.007-2.379,2.48-4.559,4.308-6.385c1.827-1.828,4.007-3.301,6.386-4.308c1.215-0.514,2.48-0.906,3.772-1.17
	C506.828,0.137,508.188,0,509.549,0c1.361,0,2.722,0.136,4.055,0.409c1.292,0.263,2.558,0.656,3.771,1.17
	c2.38,1.007,4.56,2.48,6.386,4.308c1.827,1.826,3.301,4.006,4.308,6.385c0.514,1.215,0.906,2.48,1.17,3.773
	C529.511,17.377,529.646,18.738,529.646,20.098"/>
<path d="M388.988,162.228c-2.873-1.558-6.172-3.763-8.734-5.57c-1.367-0.965-2.526-1.819-3.312-2.406
	c4.106-7.111,8.213-14.223,12.318-21.336c1.561,1.131,3.165,2.203,4.796,3.227c2.477,1.554,5.019,2.999,7.62,4.332
	c4.398,2.252,8.965,4.181,13.679,5.657c2.705,0.851,5.458,1.549,8.247,2.06c2.889,0.526,5.817,0.851,8.753,0.935
	c1.501,0.044,3.005,0.026,4.504-0.073c0.554-0.036,1.107-0.083,1.657-0.157c0.936-0.127,1.86-0.334,2.768-0.599
	c1.815-0.524,3.562-1.275,5.198-2.218c0.399-0.23,0.792-0.471,1.179-0.722c0.311-0.202,0.616-0.41,0.913-0.63
	c0.37-0.274,0.725-0.567,1.062-0.883c0.636-0.594,1.204-1.26,1.681-1.987c0.452-0.691,0.82-1.44,1.086-2.223
	c0.26-0.761,0.422-1.555,0.48-2.357c0.058-0.793,0.015-1.594-0.129-2.376c-0.145-0.787-0.391-1.558-0.727-2.285
	c-0.345-0.746-0.783-1.45-1.299-2.091c-0.538-0.67-1.16-1.273-1.84-1.8c-0.355-0.275-0.727-0.531-1.112-0.762
	c-0.45-0.269-0.921-0.505-1.397-0.728c-1.841-0.868-3.757-1.568-5.7-2.174c-1.919-0.6-3.865-1.108-5.819-1.58
	c-0.768-0.186-1.534-0.364-2.303-0.539c-0.92-0.209-1.842-0.412-2.764-0.611c-1.944-0.416-3.894-0.812-5.842-1.208
	c-3.663-0.746-7.325-1.495-10.953-2.396c-1.389-0.348-2.773-0.716-4.146-1.119c-1.138-0.337-2.268-0.697-3.389-1.089
	c-2.218-0.774-4.397-1.666-6.491-2.732c-1.513-0.77-2.979-1.631-4.378-2.593c-2.112-1.453-4.066-3.137-5.807-5.021
	c-1.666-1.801-3.136-3.784-4.369-5.906c-1.204-2.072-2.183-4.276-2.912-6.561c-1.445-4.515-1.918-9.339-1.389-14.051
	c0.268-2.383,0.792-4.738,1.556-7.011c0.79-2.357,1.839-4.628,3.115-6.761c1.337-2.234,2.925-4.317,4.708-6.213
	c0.891-0.947,1.83-1.848,2.806-2.709c0.935-0.825,1.901-1.614,2.901-2.359c1.955-1.461,4.032-2.759,6.199-3.883
	c2.151-1.117,4.391-2.061,6.686-2.841c2.326-0.792,4.709-1.414,7.119-1.886c1.305-0.256,2.617-0.468,3.935-0.646
	c2.107-0.286,4.225-0.488,6.348-0.61c3.962-0.229,7.94-0.179,11.896,0.156c3.603,0.305,7.187,0.847,10.722,1.614
	c5.827,1.264,11.521,3.141,16.965,5.574c3.222,1.438,6.356,3.072,9.375,4.9c1.81,1.097,3.578,2.264,5.271,3.535
	c-3.727,6.453-7.453,12.907-11.179,19.361c-1.407-0.727-2.83-1.42-4.266-2.089c-2.292-1.068-4.613-2.072-6.961-3.01
	c-4.083-1.631-8.249-3.065-12.497-4.197c-2.275-0.607-4.574-1.127-6.895-1.53c-1.162-0.202-2.328-0.373-3.499-0.508
	c-0.454-0.052-0.91-0.099-1.367-0.137c-1.579-0.13-3.167-0.151-4.748-0.042c-1.563,0.107-3.119,0.34-4.641,0.717
	c-1.538,0.382-3.041,0.91-4.48,1.575c-0.737,0.342-1.459,0.719-2.157,1.136c-0.468,0.281-0.927,0.578-1.365,0.905
	c-0.795,0.593-1.521,1.282-2.144,2.056c-0.585,0.725-1.079,1.526-1.446,2.383c-0.353,0.823-0.587,1.699-0.685,2.589
	c-0.096,0.882-0.058,1.778,0.112,2.649c0.176,0.888,0.487,1.75,0.91,2.551c0.446,0.842,1.017,1.616,1.675,2.304
	c0.713,0.747,1.53,1.389,2.397,1.947c1.508,0.974,3.17,1.689,4.871,2.264c1.833,0.618,3.713,1.07,5.6,1.491
	c4.499,1.003,9.038,1.821,13.561,2.716c2.19,0.433,4.378,0.883,6.557,1.374c1.084,0.244,2.164,0.499,3.242,0.769
	c0.852,0.212,1.701,0.435,2.549,0.663c3.087,0.831,6.156,1.745,9.138,2.899c1.459,0.563,2.897,1.186,4.297,1.884
	c0.814,0.405,1.616,0.837,2.399,1.3c1.184,0.698,2.325,1.467,3.416,2.305c2.101,1.614,4.008,3.479,5.661,5.549
	c1.606,2.011,2.974,4.214,4.067,6.544c1.084,2.307,1.9,4.738,2.435,7.231c0.536,2.498,0.79,5.058,0.755,7.611
	c-0.035,2.584-0.364,5.164-0.98,7.673c-0.626,2.552-1.548,5.032-2.737,7.376c-0.62,1.219-1.313,2.403-2.072,3.541
	c-0.761,1.136-1.588,2.228-2.468,3.278c-0.865,1.031-1.78,2.022-2.736,2.974c-0.957,0.949-1.954,1.856-2.991,2.716
	c-2.025,1.679-4.202,3.173-6.49,4.475c-2.294,1.306-4.697,2.414-7.174,3.336c-1.259,0.468-2.536,0.887-3.828,1.259
	c-0.667,0.191-1.341,0.372-2.015,0.547c-0.596,0.154-1.192,0.304-1.791,0.449c-1.611,0.387-3.234,0.726-4.866,1.012
	c-4.749,0.83-9.577,1.208-14.397,1.146c-6.169-0.077-12.325-0.875-18.323-2.315c-3.81-0.915-7.555-2.089-11.213-3.491
	C396.844,166.176,392.852,164.322,388.988,162.228L388.988,162.228z"/>
<path d="M12.045,162.228c-2.873-1.558-6.172-3.763-8.734-5.57c-1.367-0.965-2.526-1.819-3.311-2.406
	c4.106-7.111,8.212-14.223,12.318-21.336c1.56,1.131,3.164,2.203,4.796,3.227c2.476,1.554,5.018,2.999,7.62,4.332
	c4.398,2.252,8.965,4.181,13.679,5.657c2.705,0.851,5.458,1.549,8.246,2.06c2.889,0.526,5.817,0.851,8.753,0.935
	c1.502,0.044,3.006,0.026,4.504-0.073c0.555-0.036,1.108-0.083,1.658-0.157c0.935-0.127,1.86-0.334,2.767-0.599
	c1.815-0.524,3.561-1.275,5.199-2.218c0.399-0.23,0.792-0.471,1.178-0.722c0.31-0.202,0.616-0.409,0.913-0.63
	c0.37-0.274,0.725-0.567,1.061-0.883c0.636-0.594,1.205-1.26,1.681-1.987c0.452-0.691,0.821-1.44,1.087-2.223
	c0.259-0.761,0.421-1.555,0.48-2.357c0.058-0.793,0.014-1.594-0.129-2.376c-0.145-0.787-0.391-1.559-0.727-2.285
	c-0.344-0.746-0.783-1.45-1.298-2.091c-0.538-0.67-1.161-1.273-1.841-1.8c-0.355-0.275-0.726-0.531-1.111-0.762
	c-0.452-0.269-0.922-0.505-1.398-0.728c-1.842-0.868-3.758-1.568-5.7-2.174c-1.92-0.6-3.865-1.108-5.82-1.58
	c-0.766-0.186-1.534-0.364-2.303-0.539c-0.92-0.209-1.84-0.412-2.763-0.611c-1.944-0.416-3.893-0.812-5.842-1.208
	c-3.662-0.746-7.325-1.495-10.953-2.396c-1.389-0.348-2.774-0.716-4.147-1.119c-1.137-0.337-2.267-0.697-3.388-1.089
	c-2.219-0.774-4.398-1.666-6.492-2.732c-1.512-0.77-2.98-1.631-4.378-2.593c-2.112-1.453-4.066-3.137-5.807-5.021
	c-1.666-1.801-3.135-3.784-4.368-5.906c-1.204-2.072-2.183-4.276-2.912-6.561c-1.446-4.515-1.918-9.339-1.389-14.051
	c0.267-2.383,0.792-4.738,1.555-7.011c0.791-2.357,1.839-4.628,3.115-6.761c1.337-2.234,2.925-4.317,4.708-6.213
	c0.891-0.947,1.831-1.848,2.806-2.709c0.935-0.825,1.902-1.614,2.901-2.359c1.955-1.461,4.034-2.759,6.2-3.883
	c2.151-1.117,4.391-2.061,6.686-2.841c2.325-0.792,4.708-1.414,7.119-1.886c1.304-0.256,2.617-0.468,3.934-0.646
	c2.107-0.286,4.225-0.488,6.348-0.61c3.962-0.229,7.94-0.179,11.894,0.156c3.605,0.305,7.188,0.847,10.723,1.614
	c5.828,1.264,11.521,3.141,16.965,5.574c3.222,1.438,6.356,3.072,9.375,4.9c1.81,1.097,3.579,2.264,5.271,3.535
	c-3.727,6.453-7.453,12.907-11.179,19.361c-1.407-0.727-2.83-1.42-4.265-2.089c-2.292-1.068-4.614-2.072-6.961-3.01
	c-4.084-1.631-8.249-3.065-12.497-4.197c-2.276-0.607-4.575-1.127-6.896-1.53c-1.161-0.202-2.327-0.373-3.498-0.508
	c-0.455-0.052-0.911-0.099-1.368-0.137c-1.578-0.13-3.167-0.151-4.747-0.042c-1.564,0.107-3.12,0.34-4.641,0.717
	c-1.538,0.382-3.041,0.91-4.48,1.575c-0.738,0.342-1.459,0.719-2.157,1.136c-0.469,0.281-0.928,0.578-1.366,0.905
	c-0.795,0.593-1.521,1.282-2.144,2.056c-0.585,0.725-1.079,1.526-1.446,2.383c-0.352,0.823-0.587,1.699-0.685,2.589
	c-0.096,0.882-0.058,1.778,0.113,2.649c0.174,0.888,0.487,1.75,0.91,2.551c0.446,0.842,1.016,1.616,1.674,2.304
	c0.713,0.747,1.53,1.389,2.397,1.947c1.508,0.974,3.171,1.689,4.872,2.264c1.833,0.618,3.713,1.07,5.599,1.491
	c4.499,1.003,9.038,1.821,13.56,2.716c2.192,0.433,4.378,0.883,6.557,1.374c1.084,0.244,2.165,0.499,3.242,0.769
	c0.852,0.212,1.701,0.435,2.549,0.663c3.087,0.831,6.156,1.745,9.138,2.899c1.459,0.563,2.897,1.186,4.297,1.884
	c0.815,0.405,1.616,0.837,2.4,1.3c1.183,0.698,2.325,1.467,3.415,2.305c2.101,1.614,4.008,3.479,5.662,5.549
	c1.607,2.011,2.974,4.214,4.068,6.544c1.084,2.307,1.898,4.738,2.434,7.231c0.536,2.498,0.789,5.058,0.755,7.611
	c-0.036,2.584-0.365,5.164-0.98,7.673c-0.627,2.552-1.548,5.032-2.738,7.376c-0.62,1.219-1.313,2.403-2.073,3.541
	c-0.76,1.136-1.588,2.228-2.467,3.278c-0.866,1.031-1.781,2.022-2.737,2.974c-0.956,0.949-1.953,1.856-2.99,2.716
	c-2.026,1.679-4.204,3.173-6.491,4.475c-2.294,1.306-4.697,2.414-7.173,3.336c-1.259,0.468-2.537,0.887-3.829,1.259
	c-0.668,0.191-1.341,0.372-2.014,0.547c-0.596,0.154-1.193,0.304-1.792,0.449c-1.611,0.387-3.234,0.726-4.866,1.012
	c-4.749,0.83-9.577,1.208-14.398,1.146c-6.168-0.077-12.324-0.875-18.323-2.315c-3.809-0.915-7.554-2.089-11.212-3.491
	C19.9,166.176,15.908,164.322,12.045,162.228L12.045,162.228z"/>
<path d="M374.76,105.75c-0.129-3.061-0.443-6.115-0.964-9.133c-0.493-2.853-1.171-5.673-2.041-8.434
	c-0.831-2.641-1.837-5.226-3.016-7.729c-1.139-2.423-2.439-4.77-3.892-7.019c-1.419-2.198-2.983-4.303-4.676-6.298
	c-1.668-1.967-3.461-3.828-5.362-5.57c-3.76-3.447-7.944-6.428-12.407-8.898c-4.43-2.451-9.135-4.398-13.995-5.817
	c-4.814-1.406-9.781-2.293-14.785-2.625c-2.616-0.173-5.242-0.194-7.86-0.061c-2.679,0.137-5.349,0.435-7.99,0.893
	c-5.211,0.902-10.315,2.424-15.169,4.526c-4.805,2.08-9.364,4.729-13.546,7.881c-4.183,3.152-7.986,6.807-11.286,10.873
	c-3.347,4.125-6.177,8.674-8.385,13.506c-2.295,5.025-3.92,10.356-4.847,15.802c-0.488,2.86-0.784,5.755-0.898,8.654
	c-0.056,1.43-0.069,2.859-0.035,4.286c0.032,1.372,0.107,2.743,0.226,4.111c0.459,5.317,1.577,10.579,3.336,15.617
	c1.712,4.902,4.031,9.596,6.883,13.936c2.83,4.31,6.186,8.272,9.963,11.779c3.807,3.535,8.041,6.608,12.579,9.135
	c4.645,2.588,9.607,4.605,14.736,6.003c5.354,1.46,10.889,2.248,16.436,2.378c5.058,0.102,10.125-0.38,15.082-1.393
	c5.028-1.028,9.943-2.605,14.625-4.706c4.722-2.12,9.206-4.773,13.307-7.928c2.483-1.91,4.824-4.003,6.993-6.264
	c1.831-1.906,3.537-3.933,5.104-6.063c1.595-2.173,3.044-4.455,4.331-6.824c1.325-2.442,2.479-4.975,3.459-7.576
	c1.02-2.712,1.848-5.498,2.483-8.324c0.672-2.986,1.131-6.021,1.397-9.071C374.826,112.191,374.894,108.965,374.76,105.75
	L374.76,105.75z M343.332,112.686c-0.149,1.353-0.36,2.697-0.641,4.029c-0.513,2.444-1.256,4.841-2.24,7.135
	c-0.922,2.148-2.053,4.207-3.385,6.129c-1.271,1.834-2.722,3.542-4.327,5.089c-1.555,1.497-3.254,2.843-5.064,4.018
	c-1.768,1.149-3.642,2.137-5.59,2.941c-3.794,1.567-7.872,2.449-11.975,2.574c-2.372,0.071-4.752-0.106-7.087-0.532
	c-2.256-0.411-4.47-1.051-6.594-1.915c-2.088-0.852-4.089-1.916-5.962-3.171c-1.867-1.251-3.607-2.692-5.189-4.288
	c-1.596-1.612-3.03-3.383-4.281-5.275c-1.277-1.929-2.363-3.983-3.247-6.122c-0.912-2.204-1.607-4.497-2.086-6.834
	c-0.498-2.437-0.759-4.922-0.794-7.407c-0.034-2.444,0.165-4.893,0.604-7.299c0.424-2.315,1.072-4.593,1.939-6.782
	c0.845-2.138,1.897-4.191,3.143-6.125c1.227-1.906,2.64-3.695,4.215-5.326c1.569-1.626,3.3-3.095,5.158-4.383
	c1.872-1.298,3.874-2.41,5.965-3.309c2.135-0.917,4.362-1.613,6.636-2.087c2.355-0.491,4.761-0.747,7.165-0.74
	c2.279,0.006,4.557,0.247,6.782,0.729c2.188,0.474,4.325,1.183,6.369,2.098c2.036,0.911,3.979,2.027,5.797,3.317
	c0.912,0.647,1.792,1.338,2.638,2.068c0.846,0.732,1.656,1.502,2.43,2.309c1.566,1.635,2.975,3.417,4.204,5.316
	c1.229,1.9,2.28,3.915,3.127,6.015c0.866,2.145,1.521,4.377,1.951,6.65c0.221,1.17,0.384,2.353,0.481,3.538
	c0.098,1.187,0.131,2.376,0.114,3.568C343.568,109.974,343.48,111.333,343.332,112.686"/>
<path d="M204.848,151.678c-6.093,13.806-20.035,20.38-34.594,21.653c-14.559,1.275-29.734-2.752-39.902-12.073
	s-15.328-23.94-15.328-39.191V48.949h31.078c-0.033,13.067-0.055,26.135-0.056,39.203c0,7.142,0.006,14.286,0.031,21.43
	c0.005,1.76,0.013,3.519,0.04,5.278c0.01,0.646,0.023,1.291,0.043,1.938c0.082,2.62,0.283,5.243,0.741,7.826
	c0.211,1.188,0.477,2.367,0.801,3.529c0.269,0.957,0.577,1.901,0.928,2.831c0.665,1.761,1.483,3.467,2.477,5.067
	c0.947,1.521,2.052,2.946,3.305,4.229c0.615,0.628,1.266,1.223,1.948,1.778c1.177,0.958,2.448,1.799,3.785,2.515
	c1.602,0.857,3.299,1.534,5.041,2.044c1.853,0.543,3.759,0.898,5.68,1.105c2.045,0.221,4.107,0.272,6.161,0.168
	c1.969-0.102,3.931-0.348,5.855-0.774c1.822-0.407,3.611-0.974,5.326-1.714c1.655-0.716,3.241-1.591,4.715-2.629
	c1.457-1.027,2.804-2.209,4.008-3.523c1.224-1.333,2.3-2.801,3.214-4.362c0.954-1.629,1.733-3.361,2.338-5.149
	c0.285-0.842,0.532-1.697,0.754-2.556c0.196-0.763,0.374-1.528,0.533-2.298c0.648-3.118,1.012-6.293,1.165-9.475
	c0.038-0.789,0.064-1.579,0.082-2.369c0.029-1.272,0.039-2.547,0.048-3.82c0.024-3.555,0.04-7.107,0.049-10.661
	c0.022-8.523,0.012-17.046-0.006-25.569c-0.017-8.014-0.041-16.028-0.075-24.041h31.073c0.003,40.507,0.005,81.015,0.007,121.522
	h-31.265V151.678L204.848,151.678z"/>
<rect fill="none" width="529.646" height="173.562"/>
</svg>
