<?xml version="1.0" encoding="UTF-8"?>
<svg xmlns="http://www.w3.org/2000/svg" id="Layer_1" version="1.1" viewBox="0 0 380 86.71">
  <!-- Generator: Adobe Illustrator 29.5.1, SVG Export Plug-In . SVG Version: 2.1.0 Build 141)  -->
  <path d="M272.11,0H0v86.71h380V0h-107.89ZM309.43,40.38c1.43,0,2.59,1.16,2.59,2.59s-1.16,2.59-2.59,2.59h-6.54v8.98c0,1.43-1.16,2.59-2.59,2.59s-2.59-1.16-2.59-2.59v-22.38c0-1.43,1.16-2.59,2.59-2.59h14.57c1.43,0,2.59,1.16,2.59,2.59s-1.16,2.59-2.59,2.59h-11.98v5.62h6.54ZM328.7,33.73c-.87-1.14-.65-2.77.49-3.63,1.14-.87,2.77-.65,3.63.49l6.47,8.49,6.47-8.49c.87-1.14,2.5-1.36,3.63-.49s1.36,2.5.49,3.63l-7.33,9.62,7.33,9.62c.87,1.14.65,2.77-.49,3.63s-2.77.65-3.63-.49l-6.47-8.49-6.47,8.49c-.87,1.14-2.5,1.36-3.63.49-1.14-.87-1.36-2.5-.49-3.63l7.33-9.62-7.33-9.62ZM268.11,82.71H4V4h264.11v78.71Z"></path>
  <path d="M101.43,54.1c5.79,4.86,14.39,4.26,19.45-1.36.96-1.06.87-2.7-.19-3.66-1.06-.96-2.7-.87-3.66.19-3.19,3.54-8.61,3.92-12.26.86-3.74-3.14-4.23-8.72-1.09-12.46,3.14-3.74,8.72-4.23,12.46-1.09,1.1.92,2.73.78,3.65-.32s.78-2.73-.32-3.65c-5.94-4.98-14.79-4.21-19.77,1.73s-4.21,14.79,1.73,19.77Z"></path>
  <path d="M32.17,34.76h7.43v19.79c0,1.43,1.16,2.59,2.59,2.59s2.59-1.16,2.59-2.59v-19.79h7.43c1.43,0,2.59-1.16,2.59-2.59s-1.16-2.59-2.59-2.59h-20.05c-1.43,0-2.59,1.16-2.59,2.59s1.16,2.59,2.59,2.59Z"></path>
  <path d="M192.15,57.14h14.57c1.43,0,2.59-1.16,2.59-2.59s-1.16-2.59-2.59-2.59h-11.98v-19.79c0-1.43-1.16-2.59-2.59-2.59s-2.59,1.16-2.59,2.59v22.38c0,1.43,1.16,2.59,2.59,2.59Z"></path>
  <path d="M224.75,57.14h15.19c1.43,0,2.59-1.16,2.59-2.59s-1.16-2.59-2.59-2.59h-12.6v-6.39h6.54c1.43,0,2.59-1.16,2.59-2.59s-1.16-2.59-2.59-2.59h-6.54v-5.62h11.98c1.43,0,2.59-1.16,2.59-2.59s-1.16-2.59-2.59-2.59h-14.57c-1.43,0-2.59,1.16-2.59,2.59v22.38c0,1.43,1.16,2.59,2.59,2.59Z"></path>
  <path d="M170.76,57.14c1.43,0,2.59-1.16,2.59-2.59v-22.38c0-1.43-1.16-2.59-2.59-2.59s-2.59,1.16-2.59,2.59v22.38c0,1.43,1.16,2.59,2.59,2.59Z"></path>
  <path d="M133.46,34.76h7.43v19.79c0,1.43,1.16,2.59,2.59,2.59s2.59-1.16,2.59-2.59v-19.79h7.43c1.43,0,2.59-1.16,2.59-2.59s-1.16-2.59-2.59-2.59h-20.05c-1.43,0-2.59,1.16-2.59,2.59s1.16,2.59,2.59,2.59Z"></path>
  <path d="M62.46,56.9c1.3.6,2.84.02,3.44-1.28l2.03-4.44h11.62l2.02,4.43c.59,1.3,2.13,1.88,3.43,1.29,1.3-.59,1.88-2.13,1.29-3.43l-10.19-22.38c-.59-1.3-2.13-1.88-3.43-1.29-1.3.59-1.88,2.13-1.29,3.43l5.81,12.76h-10.92c-1.01,0-1.94.59-2.36,1.51l-2.73,5.95c-.6,1.3-.02,2.84,1.28,3.44Z"></path>
</svg>
