<svg width="526" height="47" viewBox="0 0 526 47" fill="none" xmlns="http://www.w3.org/2000/svg">
<path fill-rule="evenodd" clip-rule="evenodd" d="M21.0009 31.8319L31.854 0.589288H39.8857L50.7388 31.8319L61.2506 0.7191H71.4894L54.7433 46.696H46.5978L35.7447 16.4053L24.8689 46.696H16.7233L0 0.7191H10.4436L21.0009 31.8319ZM114.72 19.0882H141.705V0.7191H151.511V46.4364H141.705V27.7643H114.72V46.4364H105.004V0.7191H114.72V19.0882ZM199.019 46.4364H189.304V0.7191H199.019V46.4364ZM279.792 16.1457V16.2755C279.792 26.7474 270.895 32.0916 260.429 32.0916H246.618V46.4364H236.903V0.7191H261.362C272.511 0.7191 279.792 6.84214 279.792 16.1457ZM269.94 16.3188C269.94 11.7103 266.527 9.17885 260.702 9.17885H246.618V23.6102H260.725C266.572 23.6102 269.962 20.5378 269.962 16.4486L269.94 16.3188ZM316.628 32.9354C320.437 36.4848 325.539 38.4999 330.872 38.5608C335.741 38.5608 338.335 36.3972 338.335 33.7575V33.6277C338.335 31.0963 337.129 29.4952 328.437 27.5912C318.54 25.4276 312.374 22.3986 312.374 13.6792V13.5494C312.374 5.45742 319.495 0.00511046 329.006 0.00511046C335.323 -0.11572 341.479 1.90955 346.366 5.71706L346.844 6.08487L341.679 13.2032L341.133 12.8137C337.689 10.1416 333.425 8.60752 328.983 8.44322C324.433 8.44322 322.157 10.6068 322.157 12.9435V13.0734C322.157 15.8212 323.568 17.2491 332.578 19.2829C342.476 21.5764 348.118 25.0814 348.118 32.957V33.0868C348.118 41.8928 340.769 46.9989 330.758 46.9989C323.377 47.0615 316.242 44.473 310.781 39.7508L310.303 39.3397L316.105 32.5892L316.628 32.9354ZM475.534 31.7454L486.387 0.502742H494.419L505.249 31.7454L515.784 0.632562H526L509.277 46.6094H501.131L490.255 16.3188L479.402 46.6094H471.257L454.511 0.632562H465L475.534 31.7454ZM380.359 46.4364L401.474 0.437836H410.074L431.189 46.4364H420.859L405.638 12.3594L390.416 46.4364H380.359Z" fill="#111111"/>
</svg>
