<?xml version="1.0" encoding="UTF-8"?>
<svg id="_图层_2" data-name="图层 2" xmlns="http://www.w3.org/2000/svg" viewBox="0 0 83.48 83.48">
  <defs>
    <style>
      .cls-1 {
        fill: #fff;
      }

      .cls-1, .cls-2 {
        stroke-width: 0px;
      }

      .cls-2 {
        fill: #21b5c2;
      }
    </style>
  </defs>
  <g id="_图层_1-2" data-name="图层 1">
    <g>
      <rect class="cls-2" width="83.48" height="83.48"/>
      <g>
        <g>
          <path class="cls-1" d="m23.5,40.12c.03-.1,3.23-7.14,3.23-7.14.16-.37.31-.65.76-.65h2.24c.44,0,.68.24.47.81l-4.93,10.31v5.97c0,.44-.16.65-.63.65h-2.27c-.47,0-.65-.21-.65-.51v-6.15l-4.96-10.43c-.18-.39,0-.65.44-.65h2.58c.44,0,.63.26.78.65,0,0,2.9,7.04,2.92,7.14Z"/>
          <path class="cls-1" d="m61.66,49.42c0,.44-.16.65-.63.65h-2.06c-.34,0-.47-.08-.6-.31l-5.03-8.64c-.7-1.17-1.02-2.03-1.04-2.11v10.41c0,.44-.16.65-.63.65h-2.06c-.47,0-.63-.21-.63-.65v-16.44c0-.44.16-.65.63-.65h2.06c.29,0,.44.08.55.26l5.24,9c.44.76.89,1.83.89,1.83v-10.44c0-.44.16-.65.63-.65h2.06c.47,0,.63.21.63.65v16.44Z"/>
          <path class="cls-1" d="m78.65,40.76c.44,0,.65.16.65.63v4.64c0,2.19-1.41,4.25-6.13,4.25s-6.13-2.06-6.13-4.25v-9.65c0-2.19,1.41-4.25,6.13-4.25s6.13,2.06,6.13,4.25v1.04c0,.44-.16.65-.6.65h-2.17c-.47,0-.65-.21-.65-.65v-.42c0-1.3-.91-1.96-2.66-1.96s-2.63.65-2.63,1.96v8.4c0,1.3.89,1.96,2.63,1.96s2.66-.65,2.66-1.93v-1.75h-2.56c-.47,0-.68-.16-.68-.63v-1.67c0-.47.21-.63.68-.63h5.32Z"/>
          <path class="cls-1" d="m41.07,49.42c.13.42.31.65.76.65h2.35c.44,0,.6-.23.47-.65l-4.85-16.44c-.13-.44-.36-.65-.83-.65h-2.27c-.47,0-.68.21-.81.65l-4.88,16.44c-.13.42.03.65.5.65h2.11c.47,0,.65-.23.78-.65l3.45-12.66,3.22,12.66Z"/>
        </g>
        <g>
          <path class="cls-1" d="m35.08,62.61c-.2,0-.26-.11-.26-.32v-7.71c0-.22.07-.32.29-.32h2.68c2.22,0,2.99.97,2.99,2v4.35c0,1.03-.77,2-2.99,2h-2.71Zm1.4-6.97v5.6h1.31c.83,0,1.34-.31,1.34-.92v-3.76c0-.61-.5-.92-1.34-.92h-1.31Z"/>
          <path class="cls-1" d="m43.95,62.61c-.22,0-.29-.1-.29-.32v-7.71c0-.22.07-.32.29-.32h4.32c.21,0,.31.07.31.29v.77c0,.22-.1.31-.31.31h-2.96v1.99h2.63c.22,0,.32.07.32.29v.74c0,.21-.1.29-.32.29h-2.63v2.28h2.96c.22,0,.31.07.31.29v.77c0,.22-.09.31-.31.31h-4.32Z"/>
          <path class="cls-1" d="m55.61,56.38c0-.6-.41-.88-1.19-.88s-1.2.28-1.2.88v.18c0,.43.31.59.5.66l2.14.76c.84.29,1.45.86,1.45,1.77v.95c0,1.03-.72,2-2.92,2s-2.94-.97-2.94-2v-.77c0-.22.09-.32.3-.32h1.03c.22,0,.3.1.3.32v.55c0,.6.47.89,1.3.89s1.3-.28,1.3-.89v-.39c0-.5-.49-.7-1.04-.91l-1.9-.71c-.59-.22-1.12-.85-1.12-1.59v-.73c0-1.03.64-2,2.79-2s2.84.97,2.84,2v.5c0,.21-.09.31-.31.31h-1.03c-.21,0-.28-.1-.28-.31v-.28Z"/>
          <path class="cls-1" d="m61.83,62.29c0,.22-.07.32-.29.32h-1.07c-.22,0-.29-.1-.29-.32v-7.71c0-.22.07-.32.29-.32h1.07c.22,0,.29.1.29.32v7.71Z"/>
          <path class="cls-1" d="m70.16,58.23c.21,0,.31.07.31.3v2.19c0,1.03-.66,2-2.89,2s-2.89-.97-2.89-2v-4.55c0-1.03.66-2,2.89-2s2.89.97,2.89,2v.49c0,.21-.07.31-.28.31h-1.02c-.22,0-.31-.1-.31-.31v-.2c0-.62-.43-.92-1.25-.92s-1.24.31-1.24.92v3.96c0,.61.42.92,1.24.92s1.25-.31,1.25-.91v-.82h-1.2c-.22,0-.32-.07-.32-.3v-.79c0-.22.1-.3.32-.3h2.51Z"/>
          <path class="cls-1" d="m79.3,62.3c0,.21-.07.31-.29.31h-.97c-.16,0-.22-.04-.28-.15l-2.37-4.06c-.33-.55-.48-.96-.49-.99v4.9c0,.21-.07.31-.29.31h-.97c-.22,0-.29-.1-.29-.31v-7.73c0-.21.07-.31.29-.31h.97c.13,0,.21.04.26.12l2.47,4.23c.21.36.42.86.42.86v-4.91c0-.21.07-.31.29-.31h.97c.22,0,.29.1.29.31v7.73Z"/>
        </g>
      </g>
    </g>
  </g>
</svg>